<svg width="629" height="58" viewBox="0 0 629 58" fill="none" xmlns="http://www.w3.org/2000/svg">
<mask id="mask0_16_212" style="mask-type:alpha" maskUnits="userSpaceOnUse" x="0" y="0" width="629" height="58">
<rect width="629" height="58" fill="#D9D9D9"/>
</mask>
<g mask="url(#mask0_16_212)">
<g filter="url(#filter0_di_16_212)">
<path d="M44.9105 24.106L-48 114H677L584.09 24.106C581.996 22.0808 579.238 20.8859 576.329 20.7443L314.5 8L52.6712 20.7443C49.762 20.8859 47.0037 22.0808 44.9105 24.106Z" fill="#2A3D6E"/>
</g>
<path d="M44.9105 24.106L-48 114H677L584.09 24.106C581.996 22.0808 579.238 20.8859 576.329 20.7443L314.5 8L52.6712 20.7443C49.762 20.8859 47.0037 22.0808 44.9105 24.106Z" fill="url(#paint0_linear_16_212)"/>
<path d="M44.9105 45.106L-48 135H677L584.09 45.106C581.996 43.0808 579.238 41.8859 576.329 41.7443L314.5 29L52.6712 41.7443C49.762 41.8859 47.0037 43.0808 44.9105 45.106Z" fill="url(#paint1_linear_16_212)"/>
<mask id="mask1_16_212" style="mask-type:alpha" maskUnits="userSpaceOnUse" x="10" y="7" width="611" height="52">
<rect x="10" y="7" width="611" height="52" fill="#D9D9D9"/>
</mask>
<g mask="url(#mask1_16_212)">
<path d="M45.9105 25.106L-47 115H678L585.09 25.106C582.996 23.0808 580.238 21.8859 577.329 21.7443L315.5 9L53.6712 21.7443C50.762 21.8859 48.0037 23.0808 45.9105 25.106Z" stroke="url(#paint2_linear_16_212)" stroke-width="3"/>
</g>
<path d="M275 32.4997L315 30.5527L355 32.4997" stroke="url(#paint3_linear_16_212)" stroke-width="3"/>
</g>
<defs>
<filter id="filter0_di_16_212" x="-48" y="0" width="725" height="114" filterUnits="userSpaceOnUse" color-interpolation-filters="sRGB">
<feFlood flood-opacity="0" result="BackgroundImageFix"/>
<feColorMatrix in="SourceAlpha" type="matrix" values="0 0 0 0 0 0 0 0 0 0 0 0 0 0 0 0 0 0 127 0" result="hardAlpha"/>
<feOffset dy="-8"/>
<feComposite in2="hardAlpha" operator="out"/>
<feColorMatrix type="matrix" values="0 0 0 0 0.666667 0 0 0 0 0.768627 0 0 0 0 1 0 0 0 0.411765 0"/>
<feBlend mode="normal" in2="BackgroundImageFix" result="effect1_dropShadow_16_212"/>
<feBlend mode="normal" in="SourceGraphic" in2="effect1_dropShadow_16_212" result="shape"/>
<feColorMatrix in="SourceAlpha" type="matrix" values="0 0 0 0 0 0 0 0 0 0 0 0 0 0 0 0 0 0 127 0" result="hardAlpha"/>
<feOffset/>
<feGaussianBlur stdDeviation="8"/>
<feComposite in2="hardAlpha" operator="arithmetic" k2="-1" k3="1"/>
<feColorMatrix type="matrix" values="0 0 0 0 0.172549 0 0 0 0 0.501961 0 0 0 0 1 0 0 0 0.77 0"/>
<feBlend mode="screen" in2="shape" result="effect2_innerShadow_16_212"/>
</filter>
<linearGradient id="paint0_linear_16_212" x1="314.5" y1="8" x2="314.5" y2="114" gradientUnits="userSpaceOnUse">
<stop stop-color="#42BCFB" stop-opacity="0.270588"/>
<stop offset="0.251606" stop-color="#42BCFB" stop-opacity="0"/>
</linearGradient>
<linearGradient id="paint1_linear_16_212" x1="314.5" y1="29" x2="314.5" y2="135" gradientUnits="userSpaceOnUse">
<stop stop-color="#506BB7" stop-opacity="0.745098"/>
<stop offset="0.138581" stop-color="#506BB7" stop-opacity="0"/>
</linearGradient>
<linearGradient id="paint2_linear_16_212" x1="-25.5" y1="115" x2="678" y2="115" gradientUnits="userSpaceOnUse">
<stop offset="0.0696802" stop-color="#6D7DAD"/>
<stop offset="0.113698" stop-color="#AAD7F3"/>
<stop offset="0.231134" stop-color="#6D7DAD"/>
<stop offset="0.330328" stop-color="#6D7DAD"/>
<stop offset="0.477707" stop-color="#AAD7F3"/>
<stop offset="0.658812" stop-color="#6D7DAD"/>
<stop offset="0.848683" stop-color="#AAD7F3"/>
<stop offset="0.938402" stop-color="#6D7DAD"/>
</linearGradient>
<linearGradient id="paint3_linear_16_212" x1="273" y1="30.5527" x2="356.5" y2="30.5527" gradientUnits="userSpaceOnUse">
<stop stop-color="#FFE957" stop-opacity="0"/>
<stop offset="0.235045" stop-color="#FFE957" stop-opacity="0.847059"/>
<stop offset="0.5" stop-color="#FFE957" stop-opacity="0.847059"/>
<stop offset="0.778636" stop-color="#FFE957" stop-opacity="0.847059"/>
<stop offset="1" stop-color="#FFE957" stop-opacity="0"/>
</linearGradient>
</defs>
</svg>
