<svg width="562" height="30" viewBox="0 0 562 30" fill="none" xmlns="http://www.w3.org/2000/svg">
<mask id="mask0_16_149" style="mask-type:alpha" maskUnits="userSpaceOnUse" x="1" y="0" width="561" height="30">
<rect width="561" height="30" fill="#D9D9D9"/>
</mask>
<g mask="url(#mask0_16_149)">
<g filter="url(#filter0_d_16_149)">
<path d="M545.5863 13.1364L604 71L42.376 56.9909L1 4L545.5863 13.1364Z" fill="url(#paint0_linear_16_149)"/>
</g>
</g>
<mask id="mask1_16_149" style="mask-type:alpha" maskUnits="userSpaceOnUse" x="0" y="4" width="562" height="26">
<path d="M21.484 29H559.902L544.607 10.1318L2.578 5.01953L21.484 29Z" stroke="url(#paint1_linear_16_149)" stroke-width="2"/>
</mask>
<g mask="url(#mask1_16_149)">
<path d="M21.484 29H559.902L544.607 10.1318L2.578 5.01953L21.484 29Z" stroke="url(#paint2_linear_16_149)" stroke-width="2"/>
</g>
<path d="M366 15L371 11L244 9L248 13L366 15Z" fill="#2DAEEE" fill-opacity="0.611765"/>
<path d="M90 20H75L86 30H101L90 20Z" fill="url(#paint3_linear_16_149)"/>
<path d="M61 18H44L57 30H74L61 18Z" fill="url(#paint4_linear_16_149)"/>
<defs>
<filter id="filter0_d_16_149" x="-42" y="0" width="603" height="71" filterUnits="userSpaceOnUse" color-interpolation-filters="sRGB">
<feFlood flood-opacity="0" result="BackgroundImageFix"/>
<feColorMatrix in="SourceAlpha" type="matrix" values="0 0 0 0 0 0 0 0 0 0 0 0 0 0 0 0 0 0 127 0" result="hardAlpha"/>
<feOffset dy="-4"/>
<feComposite in2="hardAlpha" operator="out"/>
<feColorMatrix type="matrix" values="0 0 0 0 0.266667 0 0 0 0 0.454902 0 0 0 0 0.960784 0 0 0 0.411765 0"/>
<feBlend mode="normal" in2="BackgroundImageFix" result="effect1_dropShadow_16_149"/>
<feBlend mode="normal" in="SourceGraphic" in2="effect1_dropShadow_16_149" result="shape"/>
</filter>
<linearGradient id="paint0_linear_16_149" x1="19.5" y1="17.0001" x2="575" y2="38.0002" gradientUnits="userSpaceOnUse">
<stop stop-color="#2C3B62"/>
<stop offset="0.604086" stop-color="#242F51"/>
<stop offset="1" stop-color="#232E4E"/>
</linearGradient>
<linearGradient id="paint1_linear_16_149" x1="281.25" y1="4" x2="281.25" y2="28" gradientUnits="userSpaceOnUse">
<stop/>
<stop offset="1" stop-opacity="0"/>
</linearGradient>
<linearGradient id="paint2_linear_16_149" x1="11" y1="24.5001" x2="537" y2="24.5001" gradientUnits="userSpaceOnUse">
<stop stop-color="#576E94" stop-opacity="0.933333"/>
<stop offset="0.420281" stop-color="#7BA0C4"/>
<stop offset="0.695768" stop-color="#7A9EC3" stop-opacity="0.866667"/>
<stop offset="1" stop-color="#7496BA" stop-opacity="0.866667"/>
</linearGradient>
<linearGradient id="paint3_linear_16_149" x1="88" y1="20" x2="88" y2="30" gradientUnits="userSpaceOnUse">
<stop stop-color="#3582F1" stop-opacity="0.298039"/>
<stop offset="1" stop-color="#3785F3" stop-opacity="0.0901961"/>
</linearGradient>
<linearGradient id="paint4_linear_16_149" x1="59" y1="18" x2="59" y2="30" gradientUnits="userSpaceOnUse">
<stop stop-color="#2EC4FA" stop-opacity="0.407843"/>
<stop offset="1" stop-color="#31C5F6" stop-opacity="0.121569"/>
</linearGradient>
</defs>
</svg>
