<svg width="736" height="79" viewBox="0 0 736 79" fill="none" xmlns="http://www.w3.org/2000/svg">
<path d="M665 12L736 78.5C579.167 71.8333 247.3 57.1 174.5 51.5C101.7 45.9 27.8333 22.8333 0 12H665Z" fill="url(#paint0_linear_16_92)"/>
<mask id="mask0_16_92" style="mask-type:alpha" maskUnits="userSpaceOnUse" x="167" y="12" width="345" height="30">
<path d="M488 12L511.5 42L185 31L167 12H488Z" fill="#233863"/>
<path d="M488 12L511.5 42L185 31L167 12H488Z" fill="url(#paint1_linear_16_92)" fill-opacity="0.11"/>
</mask>
<g mask="url(#mask0_16_92)">
<g filter="url(#filter0_i_16_92)">
<path d="M481.5 0L511.5 42L185 31L156.5 0H481.5Z" fill="#233863"/>
<path d="M481.5 0L511.5 42L185 31L156.5 0H481.5Z" fill="url(#paint2_linear_16_92)" fill-opacity="0.11" style="mix-blend-mode:overlay"/>
</g>
<path d="M369.131 17.0895L221.282 14M369.037 21.5885L221.188 18.499M368.943 26.0875L221.094 22.998M368.849 30.5865L221 27.4971" stroke="url(#paint3_linear_16_92)"/>
</g>
<path d="M478.514 1L509.886 40.9277L185.952 30.0146L159.278 1H478.514Z" stroke="url(#paint4_linear_16_92)" stroke-width="2"/>
<path d="M478.514 1L509.886 40.9277L185.952 30.0146L159.278 1H478.514Z" stroke="url(#paint5_linear_16_92)" stroke-width="2"/>
<mask id="mask1_16_92" style="mask-type:alpha" maskUnits="userSpaceOnUse" x="354" y="11" width="361" height="47">
<path d="M384.216 46.8405L354 11H678L714.5 57.5L384.216 46.8405Z" fill="#384B83"/>
</mask>
<g mask="url(#mask1_16_92)">
<g filter="url(#filter1_i_16_92)">
<path d="M385.716 47.1917L329 -10.1488L673 4.5539L716 57.8512L385.716 47.1917Z" fill="#384B83"/>
</g>
<path d="M695.092 -26.2046L376.756 -38.9999M694.891 -21.2086L376.555 -34.004M694.69 -16.2127L376.354 -29.008M694.489 -11.2167L376.154 -24.012M694.289 -6.22073L375.953 -19.0161M694.088 -1.22476L375.752 -14.0201M693.887 3.77121L375.551 -9.02415M693.686 8.76717L375.35 -4.02818M693.485 13.7631L375.149 0.967786M693.285 18.7591L374.949 5.96375M693.084 23.7551L374.748 10.9597M692.883 28.751L374.547 15.9557M692.682 33.747L374.346 20.9517M692.481 38.743L374.145 25.9476M692.28 43.7389L373.945 30.9436" stroke="url(#paint6_linear_16_92)"/>
</g>
<path d="M388.216 41.8405L358 6H682L718.5 52.5L388.216 41.8405Z" stroke="url(#paint7_linear_16_92)" stroke-width="2"/>
<path d="M678.393 12.25L712.862 56.1641L385.8 45.6074L356.746 12.25H678.393Z" stroke="url(#paint8_linear_16_92)" stroke-width="2.5"/>
<path d="M678.393 12.25L712.862 56.1641L385.8 45.6074L356.746 12.25H678.393Z" stroke="url(#paint9_linear_16_92)" stroke-opacity="0.83" stroke-width="2.5"/>
<g filter="url(#filter2_d_16_92)">
<path d="M383 34H380L388 43L402.082 43.2962L397.439 40.8694L389 40.5L383 34Z" fill="#F7DE6D" fill-opacity="0.913725" shape-rendering="crispEdges"/>
<path d="M383 34H380L388 43L402.082 43.2962L397.439 40.8694L389 40.5L383 34Z" fill="url(#paint10_linear_16_92)" fill-opacity="0.33" style="mix-blend-mode:overlay" shape-rendering="crispEdges"/>
</g>
<path d="M185 18H182L190 26H201.5L196.5 23.5H191L185 18Z" fill="#455EF3" fill-opacity="0.913725"/>
<path d="M185 18H182L190 26H201.5L196.5 23.5H191L185 18Z" fill="url(#paint11_linear_16_92)" fill-opacity="0.33"/>
<path d="M645 27.5H627L614 11H631L645 27.5Z" fill="url(#paint12_linear_16_92)"/>
<path d="M613 24.5H598L587.5 11.5H602L613 24.5Z" fill="url(#paint13_linear_16_92)"/>
<path d="M584 20.5H571L563.5 11H577L584 20.5Z" fill="url(#paint14_linear_16_92)"/>
<path d="M318 11.5H333L343 21.5H328L318 11.5Z" fill="url(#paint15_linear_16_92)"/>
<path d="M295 11.5H309L316 17.5H302L295 11.5Z" fill="url(#paint16_linear_16_92)"/>
<defs>
<filter id="filter0_i_16_92" x="156.5" y="0" width="355" height="42" filterUnits="userSpaceOnUse" color-interpolation-filters="sRGB">
<feFlood flood-opacity="0" result="BackgroundImageFix"/>
<feBlend mode="normal" in="SourceGraphic" in2="BackgroundImageFix" result="shape"/>
<feColorMatrix in="SourceAlpha" type="matrix" values="0 0 0 0 0 0 0 0 0 0 0 0 0 0 0 0 0 0 127 0" result="hardAlpha"/>
<feOffset/>
<feGaussianBlur stdDeviation="3.5"/>
<feComposite in2="hardAlpha" operator="arithmetic" k2="-1" k3="1"/>
<feColorMatrix type="matrix" values="0 0 0 0 0.101961 0 0 0 0 0.905882 0 0 0 0 1 0 0 0 0.5 0"/>
<feBlend mode="normal" in2="shape" result="effect1_innerShadow_16_92"/>
</filter>
<filter id="filter1_i_16_92" x="329" y="-13.1488" width="387" height="71" filterUnits="userSpaceOnUse" color-interpolation-filters="sRGB">
<feFlood flood-opacity="0" result="BackgroundImageFix"/>
<feBlend mode="normal" in="SourceGraphic" in2="BackgroundImageFix" result="shape"/>
<feColorMatrix in="SourceAlpha" type="matrix" values="0 0 0 0 0 0 0 0 0 0 0 0 0 0 0 0 0 0 127 0" result="hardAlpha"/>
<feOffset dy="-3"/>
<feGaussianBlur stdDeviation="3.5"/>
<feComposite in2="hardAlpha" operator="arithmetic" k2="-1" k3="1"/>
<feColorMatrix type="matrix" values="0 0 0 0 0.109804 0 0 0 0 0.92549 0 0 0 0 1 0 0 0 0.63 0"/>
<feBlend mode="normal" in2="shape" result="effect1_innerShadow_16_92"/>
</filter>
<filter id="filter2_d_16_92" x="373" y="27" width="36.0825" height="23.2962" filterUnits="userSpaceOnUse" color-interpolation-filters="sRGB">
<feFlood flood-opacity="0" result="BackgroundImageFix"/>
<feColorMatrix in="SourceAlpha" type="matrix" values="0 0 0 0 0 0 0 0 0 0 0 0 0 0 0 0 0 0 127 0" result="hardAlpha"/>
<feOffset/>
<feGaussianBlur stdDeviation="3.5"/>
<feComposite in2="hardAlpha" operator="out"/>
<feColorMatrix type="matrix" values="0 0 0 0 1 0 0 0 0 0.666667 0 0 0 0 0.166667 0 0 0 0.46 0"/>
<feBlend mode="normal" in2="BackgroundImageFix" result="effect1_dropShadow_16_92"/>
<feBlend mode="normal" in="SourceGraphic" in2="effect1_dropShadow_16_92" result="shape"/>
</filter>
<linearGradient id="paint0_linear_16_92" x1="736" y1="78.9999" x2="-1.54849e-08" y2="78.9999" gradientUnits="userSpaceOnUse">
<stop stop-color="#94BFFF" stop-opacity="0.0941176"/>
<stop offset="0.114858" stop-color="#92B8FF" stop-opacity="0.313726"/>
<stop offset="0.187234" stop-color="#90B8FF" stop-opacity="0.380392"/>
<stop offset="0.299553" stop-color="#94BAFF" stop-opacity="0.290196"/>
<stop offset="0.504233" stop-color="#99B6FF" stop-opacity="0.137255"/>
<stop offset="0.91344" stop-color="#94BAFF" stop-opacity="0"/>
</linearGradient>
<linearGradient id="paint1_linear_16_92" x1="173" y1="26.9996" x2="512" y2="41.9997" gradientUnits="userSpaceOnUse">
<stop/>
<stop offset="1" stop-color="white"/>
</linearGradient>
<linearGradient id="paint2_linear_16_92" x1="173" y1="26.9998" x2="512" y2="41.9998" gradientUnits="userSpaceOnUse">
<stop/>
<stop offset="1" stop-color="white"/>
</linearGradient>
<linearGradient id="paint3_linear_16_92" x1="368.99" y1="23.838" x2="221.141" y2="20.7485" gradientUnits="userSpaceOnUse">
<stop stop-color="#364873" stop-opacity="0"/>
<stop offset="0.508709" stop-color="#364873"/>
<stop offset="1" stop-color="#364873" stop-opacity="0"/>
</linearGradient>
<linearGradient id="paint4_linear_16_92" x1="334.5" y1="0" x2="334.5" y2="42" gradientUnits="userSpaceOnUse">
<stop offset="0.256604" stop-color="#636C96" stop-opacity="0"/>
<stop offset="0.516877" stop-color="#636C96"/>
</linearGradient>
<linearGradient id="paint5_linear_16_92" x1="188" y1="21" x2="185" y2="33.5" gradientUnits="userSpaceOnUse">
<stop stop-color="#8496C0" stop-opacity="0"/>
<stop offset="1" stop-color="#8496C0" stop-opacity="0.996078"/>
</linearGradient>
<linearGradient id="paint6_linear_16_92" x1="693.686" y1="8.76717" x2="375.35" y2="-4.02818" gradientUnits="userSpaceOnUse">
<stop stop-color="#445687" stop-opacity="0"/>
<stop offset="0.262056" stop-color="#445687"/>
<stop offset="1" stop-color="#445687" stop-opacity="0"/>
</linearGradient>
<linearGradient id="paint7_linear_16_92" x1="397" y1="6" x2="392" y2="44" gradientUnits="userSpaceOnUse">
<stop stop-color="#668FDA" stop-opacity="0"/>
<stop offset="1" stop-color="#668FDA" stop-opacity="0.411765"/>
</linearGradient>
<linearGradient id="paint8_linear_16_92" x1="493" y1="11" x2="492.5" y2="52" gradientUnits="userSpaceOnUse">
<stop stop-color="#758EB9" stop-opacity="0"/>
<stop offset="1" stop-color="#758EB9"/>
</linearGradient>
<linearGradient id="paint9_linear_16_92" x1="409.5" y1="24.5" x2="407.5" y2="48.5" gradientUnits="userSpaceOnUse">
<stop stop-color="#96B7D7" stop-opacity="0"/>
<stop offset="1" stop-color="#96B7D7"/>
</linearGradient>
<linearGradient id="paint10_linear_16_92" x1="399.5" y1="41.5" x2="379" y2="44" gradientUnits="userSpaceOnUse">
<stop stop-color="white"/>
<stop offset="1"/>
</linearGradient>
<linearGradient id="paint11_linear_16_92" x1="199" y1="24.5" x2="178.5" y2="23.5" gradientUnits="userSpaceOnUse">
<stop stop-color="white"/>
<stop offset="1"/>
</linearGradient>
<linearGradient id="paint12_linear_16_92" x1="629.5" y1="11" x2="629.5" y2="27.5" gradientUnits="userSpaceOnUse">
<stop stop-color="#31C4F5" stop-opacity="0.101961"/>
<stop offset="0.442952" stop-color="#2EC3F9" stop-opacity="0.521569"/>
</linearGradient>
<linearGradient id="paint13_linear_16_92" x1="600.25" y1="11.5" x2="600.25" y2="24.5" gradientUnits="userSpaceOnUse">
<stop stop-color="#3384F4" stop-opacity="0.0980392"/>
<stop offset="0.494408" stop-color="#3482F0" stop-opacity="0.568627"/>
</linearGradient>
<linearGradient id="paint14_linear_16_92" x1="573.75" y1="11" x2="573.75" y2="20.5" gradientUnits="userSpaceOnUse">
<stop stop-color="#47B7FF" stop-opacity="0.0980392"/>
<stop offset="1" stop-color="#45B9FB" stop-opacity="0.529412"/>
</linearGradient>
<linearGradient id="paint15_linear_16_92" x1="330.5" y1="11.5" x2="330.5" y2="21.5" gradientUnits="userSpaceOnUse">
<stop stop-color="#367FEC" stop-opacity="0.054902"/>
<stop offset="1" stop-color="#3384F2" stop-opacity="0.309804"/>
</linearGradient>
<linearGradient id="paint16_linear_16_92" x1="305.5" y1="11.5" x2="305.5" y2="17.5" gradientUnits="userSpaceOnUse">
<stop stop-color="#48B6FF" stop-opacity="0.054902"/>
<stop offset="1" stop-color="#48BBFA" stop-opacity="0.207843"/>
</linearGradient>
</defs>
</svg>
