<svg width="562" height="30" viewBox="0 0 562 30" fill="none" xmlns="http://www.w3.org/2000/svg">
<g transform="translate(562 0) scale(-1 1)">
<mask id="mask0_corner_rb" style="mask-type:alpha" maskUnits="userSpaceOnUse" x="0" y="0" width="562" height="30">
<rect width="561" height="30" transform="matrix(-1 0 0 1 561.5 0)" fill="#D9D9D9"/>
</mask>
<g mask="url(#mask0_corner_rb)">
<g filter="url(#filter0_corner_rb)">
<path d="M545.086 13.1364L603.5 71L41.8764 56.9909L0.5 4L545.086 13.1364Z" fill="url(#paint0_linear_corner_rb)"/>
</g>
</g>
<mask id="mask1_corner_rb" style="mask-type:alpha" maskUnits="userSpaceOnUse" x="0" y="4" width="562" height="26">
<path d="M20.9844 29H559.402L544.107 10.1318L2.07812 5.01953L20.9844 29Z" stroke="url(#paint1_linear_corner_rb)" stroke-width="2"/>
</mask>
<g mask="url(#mask1_corner_rb)">
<path d="M20.9844 29H559.402L544.107 10.1318L2.07812 5.01953L20.9844 29Z" stroke="url(#paint2_linear_corner_rb)" stroke-width="2"/>
</g>
<path d="M365.5 15L370.5 11L243.5 9L247.5 13L365.5 15Z" fill="#2DAEEE" fill-opacity="0.611765"/>
<path d="M89.5 20H74.5L85.5 30H100.5L89.5 20Z" fill="url(#paint3_linear_corner_rb)"/>
<path d="M60.5 18H43.5L56.5 30H73.5L60.5 18Z" fill="url(#paint4_linear_corner_rb)"/>
<defs>
<filter id="filter0_corner_rb" x="0.5" y="0" width="603" height="71" filterUnits="userSpaceOnUse" color-interpolation-filters="sRGB">
<feFlood flood-opacity="0" result="BackgroundImageFix"/>
<feColorMatrix in="SourceAlpha" type="matrix" values="0 0 0 0 0 0 0 0 0 0 0 0 0 0 0 0 0 0 127 0" result="hardAlpha"/>
<feOffset dy="-4"/>
<feComposite in2="hardAlpha" operator="out"/>
<feColorMatrix type="matrix" values="0 0 0 0 0.266667 0 0 0 0 0.454902 0 0 0 0 0.960784 0 0 0 0.411765 0"/>
<feBlend mode="normal" in2="BackgroundImageFix" result="effect1_dropShadow_corner_rb"/>
<feBlend mode="normal" in="SourceGraphic" in2="effect1_dropShadow_corner_rb" result="shape"/>
</filter>
<linearGradient id="paint0_linear_corner_rb" x1="19" y1="17.0001" x2="574.5" y2="38.0002" gradientUnits="userSpaceOnUse">
<stop stop-color="#2C3B62"/>
<stop offset="0.604086" stop-color="#242F51"/>
<stop offset="1" stop-color="#232E4E"/>
</linearGradient>
<linearGradient id="paint1_linear_corner_rb" x1="280.75" y1="4" x2="280.75" y2="28" gradientUnits="userSpaceOnUse">
<stop/>
<stop offset="1" stop-opacity="0"/>
</linearGradient>
<linearGradient id="paint2_linear_corner_rb" x1="10.5" y1="24.5001" x2="536.5" y2="24.5001" gradientUnits="userSpaceOnUse">
<stop stop-color="#576E94" stop-opacity="0.933333"/>
<stop offset="0.420281" stop-color="#7BA0C4"/>
<stop offset="0.695768" stop-color="#7A9EC3" stop-opacity="0.866667"/>
<stop offset="1" stop-color="#7496BA" stop-opacity="0.866667"/>
</linearGradient>
<linearGradient id="paint3_linear_corner_rb" x1="87.5" y1="20" x2="87.5" y2="30" gradientUnits="userSpaceOnUse">
<stop stop-color="#3582F1" stop-opacity="0.298039"/>
<stop offset="1" stop-color="#3785F3" stop-opacity="0.0901961"/>
</linearGradient>
<linearGradient id="paint4_linear_corner_rb" x1="58.5" y1="18" x2="58.5" y2="30" gradientUnits="userSpaceOnUse">
<stop stop-color="#2EC4FA" stop-opacity="0.407843"/>
<stop offset="1" stop-color="#31C5F6" stop-opacity="0.121569"/>
</linearGradient>
</defs>
</g>
</svg>
