<svg width="736" height="79" viewBox="0 0 736 79" fill="none" xmlns="http://www.w3.org/2000/svg">
<path d="M71 12L0 78.5C156.833 71.8333 488.7 57.1 561.5 51.5C634.3 45.9 708.167 22.8333 736 12H71Z" fill="url(#paint0_linear_16_114)"/>
<mask id="mask0_16_114" style="mask-type:alpha" maskUnits="userSpaceOnUse" x="224" y="12" width="345" height="30">
<path d="M248 12L224.5 42L551 31L569 12H248Z" fill="#233863"/>
<path d="M248 12L224.5 42L551 31L569 12H248Z" fill="url(#paint1_linear_16_114)" fill-opacity="0.11"/>
</mask>
<g mask="url(#mask0_16_114)">
<g filter="url(#filter0_i_16_114)">
<path d="M254.5 0L224.5 42L551 31L579.5 0H254.5Z" fill="#233863"/>
<path d="M254.5 0L224.5 42L551 31L579.5 0H254.5Z" fill="url(#paint2_linear_16_114)" fill-opacity="0.11" style="mix-blend-mode:overlay"/>
</g>
<path d="M366.869 17.0895L514.718 14M366.963 21.5885L514.812 18.499M367.057 26.0875L514.906 22.998M367.151 30.5865L515 27.4971" stroke="url(#paint3_linear_16_114)"/>
</g>
<path d="M257.486 1L226.114 40.9277L550.048 30.0146L576.722 1H257.486Z" stroke="url(#paint4_linear_16_114)" stroke-width="2"/>
<path d="M257.486 1L226.114 40.9277L550.048 30.0146L576.722 1H257.486Z" stroke="url(#paint5_linear_16_114)" stroke-width="2"/>
<mask id="mask1_16_114" style="mask-type:alpha" maskUnits="userSpaceOnUse" x="21" y="11" width="361" height="47">
<path d="M351.784 46.8405L382 11H58L21.5 57.5L351.784 46.8405Z" fill="#384B83"/>
</mask>
<g mask="url(#mask1_16_114)">
<g filter="url(#filter1_i_16_114)">
<path d="M350.284 47.1917L407 -10.1488L63 4.5539L20 57.8512L350.284 47.1917Z" fill="#384B83"/>
</g>
<path d="M40.9082 -26.2046L359.244 -38.9999M41.109 -21.2086L359.445 -34.004M41.3098 -16.2127L359.646 -29.008M41.5106 -11.2167L359.846 -24.012M41.7114 -6.22073L360.047 -19.0161M41.9123 -1.22476L360.248 -14.0201M42.1131 3.77121L360.449 -9.02415M42.3139 8.76717L360.65 -4.02818M42.5147 13.7631L360.851 0.967786M42.7155 18.7591L361.051 5.96375M42.9163 23.7551L361.252 10.9597M43.1171 28.751L361.453 15.9557M43.3179 33.747L361.654 20.9517M43.5187 38.743L361.855 25.9476M43.7195 43.7389L362.055 30.9436" stroke="url(#paint6_linear_16_114)"/>
</g>
<path d="M347.784 41.8405L378 6H54L17.5 52.5L347.784 41.8405Z" stroke="url(#paint7_linear_16_114)" stroke-width="2"/>
<path d="M57.6074 12.25L23.1377 56.1641L350.2 45.6074L379.254 12.25H57.6074Z" stroke="url(#paint8_linear_16_114)" stroke-width="2.5"/>
<path d="M57.6074 12.25L23.1377 56.1641L350.2 45.6074L379.254 12.25H57.6074Z" stroke="url(#paint9_linear_16_114)" stroke-opacity="0.83" stroke-width="2.5"/>
<g filter="url(#filter2_d_16_114)">
<path d="M353 34H356L348 43L333.918 43.2962L338.561 40.8694L347 40.5L353 34Z" fill="#F7DE6D" fill-opacity="0.913725" shape-rendering="crispEdges"/>
<path d="M353 34H356L348 43L333.918 43.2962L338.561 40.8694L347 40.5L353 34Z" fill="url(#paint10_linear_16_114)" fill-opacity="0.33" style="mix-blend-mode:overlay" shape-rendering="crispEdges"/>
</g>
<path d="M551 18H554L546 26H534.5L539.5 23.5H545L551 18Z" fill="#455EF3" fill-opacity="0.913725"/>
<path d="M551 18H554L546 26H534.5L539.5 23.5H545L551 18Z" fill="url(#paint11_linear_16_114)" fill-opacity="0.33"/>
<path d="M91 27.5H109L122 11H105L91 27.5Z" fill="url(#paint12_linear_16_114)"/>
<path d="M123 24.5H138L148.5 11.5H134L123 24.5Z" fill="url(#paint13_linear_16_114)"/>
<path d="M152 20.5H165L172.5 11H159L152 20.5Z" fill="url(#paint14_linear_16_114)"/>
<path d="M418 11.5H403L393 21.5H408L418 11.5Z" fill="url(#paint15_linear_16_114)"/>
<path d="M441 11.5H427L420 17.5H434L441 11.5Z" fill="url(#paint16_linear_16_114)"/>
<defs>
<filter id="filter0_i_16_114" x="224.5" y="0" width="355" height="42" filterUnits="userSpaceOnUse" color-interpolation-filters="sRGB">
<feFlood flood-opacity="0" result="BackgroundImageFix"/>
<feBlend mode="normal" in="SourceGraphic" in2="BackgroundImageFix" result="shape"/>
<feColorMatrix in="SourceAlpha" type="matrix" values="0 0 0 0 0 0 0 0 0 0 0 0 0 0 0 0 0 0 127 0" result="hardAlpha"/>
<feOffset/>
<feGaussianBlur stdDeviation="3.5"/>
<feComposite in2="hardAlpha" operator="arithmetic" k2="-1" k3="1"/>
<feColorMatrix type="matrix" values="0 0 0 0 0.101961 0 0 0 0 0.905882 0 0 0 0 1 0 0 0 0.5 0"/>
<feBlend mode="normal" in2="shape" result="effect1_innerShadow_16_114"/>
</filter>
<filter id="filter1_i_16_114" x="20" y="-13.1488" width="387" height="71" filterUnits="userSpaceOnUse" color-interpolation-filters="sRGB">
<feFlood flood-opacity="0" result="BackgroundImageFix"/>
<feBlend mode="normal" in="SourceGraphic" in2="BackgroundImageFix" result="shape"/>
<feColorMatrix in="SourceAlpha" type="matrix" values="0 0 0 0 0 0 0 0 0 0 0 0 0 0 0 0 0 0 127 0" result="hardAlpha"/>
<feOffset dy="-3"/>
<feGaussianBlur stdDeviation="3.5"/>
<feComposite in2="hardAlpha" operator="arithmetic" k2="-1" k3="1"/>
<feColorMatrix type="matrix" values="0 0 0 0 0.109804 0 0 0 0 0.92549 0 0 0 0 1 0 0 0 0.63 0"/>
<feBlend mode="normal" in2="shape" result="effect1_innerShadow_16_114"/>
</filter>
<filter id="filter2_d_16_114" x="326.917" y="27" width="36.0825" height="23.2962" filterUnits="userSpaceOnUse" color-interpolation-filters="sRGB">
<feFlood flood-opacity="0" result="BackgroundImageFix"/>
<feColorMatrix in="SourceAlpha" type="matrix" values="0 0 0 0 0 0 0 0 0 0 0 0 0 0 0 0 0 0 127 0" result="hardAlpha"/>
<feOffset/>
<feGaussianBlur stdDeviation="3.5"/>
<feComposite in2="hardAlpha" operator="out"/>
<feColorMatrix type="matrix" values="0 0 0 0 1 0 0 0 0 0.666667 0 0 0 0 0.166667 0 0 0 0.46 0"/>
<feBlend mode="normal" in2="BackgroundImageFix" result="effect1_dropShadow_16_114"/>
<feBlend mode="normal" in="SourceGraphic" in2="effect1_dropShadow_16_114" result="shape"/>
</filter>
<linearGradient id="paint0_linear_16_114" x1="1.5485e-08" y1="78.9999" x2="736" y2="78.9999" gradientUnits="userSpaceOnUse">
<stop stop-color="#94BFFF" stop-opacity="0.0941176"/>
<stop offset="0.114858" stop-color="#92B8FF" stop-opacity="0.313726"/>
<stop offset="0.187234" stop-color="#90B8FF" stop-opacity="0.380392"/>
<stop offset="0.299553" stop-color="#94BAFF" stop-opacity="0.290196"/>
<stop offset="0.504233" stop-color="#99B6FF" stop-opacity="0.137255"/>
<stop offset="0.91344" stop-color="#94BAFF" stop-opacity="0"/>
</linearGradient>
<linearGradient id="paint1_linear_16_114" x1="563" y1="26.9996" x2="224" y2="41.9997" gradientUnits="userSpaceOnUse">
<stop/>
<stop offset="1" stop-color="white"/>
</linearGradient>
<linearGradient id="paint2_linear_16_114" x1="563" y1="26.9998" x2="224" y2="41.9998" gradientUnits="userSpaceOnUse">
<stop/>
<stop offset="1" stop-color="white"/>
</linearGradient>
<linearGradient id="paint3_linear_16_114" x1="367.01" y1="23.838" x2="514.859" y2="20.7485" gradientUnits="userSpaceOnUse">
<stop stop-color="#364873" stop-opacity="0"/>
<stop offset="0.508709" stop-color="#364873"/>
<stop offset="1" stop-color="#364873" stop-opacity="0"/>
</linearGradient>
<linearGradient id="paint4_linear_16_114" x1="401.5" y1="0" x2="401.5" y2="42" gradientUnits="userSpaceOnUse">
<stop offset="0.256604" stop-color="#636C96" stop-opacity="0"/>
<stop offset="0.516877" stop-color="#636C96"/>
</linearGradient>
<linearGradient id="paint5_linear_16_114" x1="548" y1="21" x2="551" y2="33.5" gradientUnits="userSpaceOnUse">
<stop stop-color="#8496C0" stop-opacity="0"/>
<stop offset="1" stop-color="#8496C0" stop-opacity="0.996078"/>
</linearGradient>
<linearGradient id="paint6_linear_16_114" x1="42.3139" y1="8.76717" x2="360.65" y2="-4.02818" gradientUnits="userSpaceOnUse">
<stop stop-color="#445687" stop-opacity="0"/>
<stop offset="0.262056" stop-color="#445687"/>
<stop offset="1" stop-color="#445687" stop-opacity="0"/>
</linearGradient>
<linearGradient id="paint7_linear_16_114" x1="339" y1="6" x2="344" y2="44" gradientUnits="userSpaceOnUse">
<stop stop-color="#668FDA" stop-opacity="0"/>
<stop offset="1" stop-color="#668FDA" stop-opacity="0.411765"/>
</linearGradient>
<linearGradient id="paint8_linear_16_114" x1="243" y1="11" x2="243.5" y2="52" gradientUnits="userSpaceOnUse">
<stop stop-color="#758EB9" stop-opacity="0"/>
<stop offset="1" stop-color="#758EB9"/>
</linearGradient>
<linearGradient id="paint9_linear_16_114" x1="326.5" y1="24.5" x2="328.5" y2="48.5" gradientUnits="userSpaceOnUse">
<stop stop-color="#96B7D7" stop-opacity="0"/>
<stop offset="1" stop-color="#96B7D7"/>
</linearGradient>
<linearGradient id="paint10_linear_16_114" x1="336.5" y1="41.5" x2="357" y2="44" gradientUnits="userSpaceOnUse">
<stop stop-color="white"/>
<stop offset="1"/>
</linearGradient>
<linearGradient id="paint11_linear_16_114" x1="537" y1="24.5" x2="557.5" y2="23.5" gradientUnits="userSpaceOnUse">
<stop stop-color="white"/>
<stop offset="1"/>
</linearGradient>
<linearGradient id="paint12_linear_16_114" x1="106.5" y1="11" x2="106.5" y2="27.5" gradientUnits="userSpaceOnUse">
<stop stop-color="#31C4F5" stop-opacity="0.101961"/>
<stop offset="0.442952" stop-color="#2EC3F9" stop-opacity="0.521569"/>
</linearGradient>
<linearGradient id="paint13_linear_16_114" x1="135.75" y1="11.5" x2="135.75" y2="24.5" gradientUnits="userSpaceOnUse">
<stop stop-color="#3384F4" stop-opacity="0.0980392"/>
<stop offset="0.494408" stop-color="#3482F0" stop-opacity="0.568627"/>
</linearGradient>
<linearGradient id="paint14_linear_16_114" x1="162.25" y1="11" x2="162.25" y2="20.5" gradientUnits="userSpaceOnUse">
<stop stop-color="#47B7FF" stop-opacity="0.0980392"/>
<stop offset="1" stop-color="#45B9FB" stop-opacity="0.529412"/>
</linearGradient>
<linearGradient id="paint15_linear_16_114" x1="405.5" y1="11.5" x2="405.5" y2="21.5" gradientUnits="userSpaceOnUse">
<stop stop-color="#367FEC" stop-opacity="0.054902"/>
<stop offset="1" stop-color="#3384F2" stop-opacity="0.309804"/>
</linearGradient>
<linearGradient id="paint16_linear_16_114" x1="430.5" y1="11.5" x2="430.5" y2="17.5" gradientUnits="userSpaceOnUse">
<stop stop-color="#48B6FF" stop-opacity="0.054902"/>
<stop offset="1" stop-color="#48BBFA" stop-opacity="0.207843"/>
</linearGradient>
</defs>
</svg>
