<svg width="775" height="129" viewBox="0 0 775 129" fill="none" xmlns="http://www.w3.org/2000/svg">
<path d="M107.359 102.875L81.5 68.2943V58.7244L114.901 91.6875L391.271 107.961L664.408 90.6704L694.549 61.3564V69.1158L669.257 101.858L391.271 128.303L107.359 102.875Z" fill="url(#paint0_linear_16_172)"/>
<path d="M107.359 102.875L81.5 68.2943V58.7244L114.901 91.6875L391.271 107.961L664.408 90.6704L694.549 61.3564V69.1158L669.257 101.858L391.271 128.303L107.359 102.875Z" fill="url(#paint1_radial_16_172)" fill-opacity="0.48"/>
<path d="M107.359 102.875L81.5 68.2943V58.7244L114.901 91.6875L391.271 107.961L664.408 90.6704L694.549 61.3564V69.1158L669.257 101.858L391.271 128.303L107.359 102.875Z" fill="url(#paint2_radial_16_172)" fill-opacity="0.48"/>
<g filter="url(#filter0_d_16_172)">
<path d="M66.8605 89.8959L5 17.0235H770L708.139 89.8959C706.015 92.3981 702.959 93.9211 699.682 94.1101L387.5 112.122L75.3176 94.1101C72.0409 93.9211 68.9846 92.3981 66.8605 89.8959Z" fill="#5164A0"/>
</g>
<mask id="mask0_16_172" style="mask-type:alpha" maskUnits="userSpaceOnUse" x="5" y="17" width="765" height="96">
<path d="M70.1866 93.8141L5 17.0235H770L704.813 93.8141L387.5 112.122L70.1866 93.8141Z" fill="#3A6AAB"/>
</mask>
<g mask="url(#mask0_16_172)">
<path d="M56.6051 77.8149L5 17.0235H770L718.395 77.8149C709.722 88.0322 697.242 94.251 683.862 95.0229L387.5 112.122L91.1382 95.0229C77.7583 94.251 65.2784 88.0322 56.6051 77.8149Z" fill="#5164A0"/>
<g style="mix-blend-mode:overlay">
<g filter="url(#filter1_f_16_172)">
<path d="M647.169 21.0919L775.926 188.912" stroke="white" stroke-width="15" stroke-linecap="round"/>
</g>
<g opacity="0.4" filter="url(#filter2_f_16_172)">
<path d="M647.169 21.0919L775.926 188.912" stroke="white" stroke-width="15" stroke-linecap="round"/>
</g>
<g filter="url(#filter3_f_16_172)">
<path d="M389.655 64.8269V215.357" stroke="white" stroke-width="15" stroke-linecap="round"/>
</g>
<g filter="url(#filter4_f_16_172)">
<path d="M115.44 34.3141L27.6268 160.434" stroke="white" stroke-width="15" stroke-linecap="round"/>
</g>
</g>
<g style="mix-blend-mode:overlay">
<g filter="url(#filter5_f_16_172)">
<g filter="url(#filter6_f_16_172)">
<path d="M650.401 28.2115L779.158 196.032" stroke="white" stroke-width="15" stroke-linecap="round"/>
</g>
<g filter="url(#filter7_f_16_172)">
<path d="M650.401 28.2115L779.158 196.032" stroke="white" stroke-width="15" stroke-linecap="round"/>
</g>
<g filter="url(#filter8_f_16_172)">
<path d="M650.401 28.2115L779.158 196.032" stroke="white" stroke-width="15" stroke-linecap="round"/>
</g>
<g opacity="0.4" filter="url(#filter9_f_16_172)">
<path d="M650.401 28.2115L779.158 196.032" stroke="white" stroke-width="15" stroke-linecap="round"/>
</g>
<g opacity="0.4" filter="url(#filter10_f_16_172)">
<path d="M650.401 28.2115L779.158 196.032" stroke="white" stroke-width="15" stroke-linecap="round"/>
</g>
<g opacity="0.4" filter="url(#filter11_f_16_172)">
<path d="M650.401 28.2115L779.158 196.032" stroke="white" stroke-width="15" stroke-linecap="round"/>
</g>
<g filter="url(#filter12_f_16_172)">
<path d="M390.732 41.4337L390.732 244.853" stroke="white" stroke-width="15" stroke-linecap="round"/>
</g>
<g filter="url(#filter13_f_16_172)">
<path d="M390.732 41.4337L390.732 244.853" stroke="white" stroke-width="43" stroke-linecap="round"/>
</g>
<g opacity="0.1" filter="url(#filter14_f_16_172)">
<path d="M390.732 60.7585L390.732 225.528" stroke="white" stroke-width="167" stroke-linecap="round"/>
</g>
<g filter="url(#filter15_f_16_172)">
<path d="M115.44 41.4337L27.6268 167.553" stroke="white" stroke-width="15" stroke-linecap="round"/>
</g>
<g filter="url(#filter16_f_16_172)">
<path d="M115.44 41.4337L27.6268 167.553" stroke="white" stroke-width="15" stroke-linecap="round"/>
</g>
<g filter="url(#filter17_f_16_172)">
<path d="M115.44 41.4337L27.6268 167.553" stroke="white" stroke-width="15" stroke-linecap="round"/>
</g>
</g>
<g filter="url(#filter18_f_16_172)">
<ellipse cx="46.3183" cy="66.6947" rx="46.3183" ry="66.6947" transform="matrix(0.938017 -0.346588 0.383031 0.923735 468.31 66.4208)" fill="white"/>
</g>
<g filter="url(#filter19_f_16_172)">
<ellipse cx="46.3183" cy="66.6947" rx="46.3183" ry="66.6947" transform="matrix(-0.938017 -0.346588 -0.383031 0.923735 283.057 65.4037)" fill="white"/>
</g>
</g>
</g>
<mask id="mask1_16_172" style="mask-type:alpha" maskUnits="userSpaceOnUse" x="8" y="17" width="760" height="89">
<rect x="8.23239" y="17.0235" width="759.613" height="88.4872" fill="#D9D9D9"/>
</mask>
<g mask="url(#mask1_16_172)">
<g filter="url(#filter20_ii_16_172)">
<path d="M70.0909 83.7668L1.76761 2.78419L777.542 1.25854L703.803 84.0085C701.69 86.3799 698.723 87.8168 695.552 88.0042L390.732 106.019L78.5716 88.0088C75.2822 87.819 72.2156 86.2851 70.0909 83.7668Z" fill="#2A3D6E"/>
<path d="M70.0909 83.7668L1.76761 2.78419L777.542 1.25854L703.803 84.0085C701.69 86.3799 698.723 87.8168 695.552 88.0042L390.732 106.019L78.5716 88.0088C75.2822 87.819 72.2156 86.2851 70.0909 83.7668Z" fill="url(#paint3_linear_16_172)" fill-opacity="0.45"/>
<path d="M70.0909 83.7668L1.76761 2.78419L777.542 1.25854L703.803 84.0085C701.69 86.3799 698.723 87.8168 695.552 88.0042L390.732 106.019L78.5716 88.0088C75.2822 87.819 72.2156 86.2851 70.0909 83.7668Z" fill="url(#paint4_radial_16_172)" fill-opacity="0.64"/>
</g>
</g>
<path d="M72.2524 82.7817L10.3873 9.90385H768.384L706.522 82.7779C704.399 85.2791 701.344 86.8019 698.068 86.9919L387.5 105.002L80.6976 86.9952C77.4252 86.8031 74.3738 85.2807 72.2524 82.7817Z" fill="url(#paint5_linear_16_172)"/>
<mask id="mask2_16_172" style="mask-type:alpha" maskUnits="userSpaceOnUse" x="13" y="0" width="749" height="97">
<path d="M76.566 73.6322L14.6972 0.75H759.764L697.895 73.6328C695.776 76.1289 692.729 77.6508 689.461 77.8457L387.5 95.8483L85.0014 77.8452C81.7326 77.6506 78.6852 76.1287 76.566 73.6322Z" stroke="url(#paint6_linear_16_172)" stroke-width="1.5"/>
</mask>
<g mask="url(#mask2_16_172)">
<path d="M76.566 73.6322L14.6972 0.75H759.764L697.895 73.6328C695.776 76.1289 692.729 77.6508 689.461 77.8457L387.5 95.8483L85.0014 77.8452C81.7326 77.6506 78.6852 76.1287 76.566 73.6322Z" stroke="url(#paint7_linear_16_172)" stroke-width="1.5"/>
</g>
<path d="M335.782 91.7799L337.937 93.8141L388.039 96.8654L439.219 93.8141L440.835 91.7799L388.039 92.2885L335.782 91.7799Z" fill="#FFEA57"/>
<path d="M71.1731 82.7795L9.30984 9.90385H767.845L705.982 82.7795C703.859 85.2798 700.806 86.8024 697.532 86.9933L388.577 105.002L79.6231 86.9933C76.349 86.8024 73.2956 85.2798 71.1731 82.7795Z" stroke="url(#paint8_linear_16_172)" stroke-width="2"/>
<path d="M71.1731 82.7795L9.30984 9.90385H766.768L704.903 82.7806C702.782 85.2802 699.729 86.8028 696.456 86.9942L388.577 105.002L79.6231 86.9933C76.349 86.8024 73.2956 85.2798 71.1731 82.7795Z" stroke="url(#paint9_linear_16_172)" stroke-width="1.3"/>
<g filter="url(#filter21_ddi_16_172)">
<path d="M68.2016 37.323H77.4416V41.712H68.2016V37.323ZM70.7756 30.03H75.1646V52.173H70.7756V30.03ZM67.5746 52.371C68.8066 52.019 70.2916 51.546 72.0296 50.952C73.7896 50.336 75.5606 49.72 77.3426 49.104L78.2336 53.328C76.6936 54.01 75.1206 54.681 73.5146 55.341C71.9306 55.979 70.4456 56.573 69.0596 57.123L67.5746 52.371ZM80.2136 33.858H98.6606V38.181H80.2136V33.858ZM80.8736 41.25H85.9556V45.078H80.8736V41.25ZM78.2006 33.858H82.5896V45.276C82.5896 46.508 82.5346 47.839 82.4246 49.269C82.3146 50.677 82.1056 52.096 81.7976 53.526C81.5116 54.956 81.0826 56.32 80.5106 57.618C79.9386 58.894 79.1906 60.027 78.2666 61.017C78.0466 60.731 77.7166 60.39 77.2766 59.994C76.8586 59.62 76.4186 59.246 75.9566 58.872C75.4946 58.52 75.0986 58.256 74.7686 58.08C75.8246 56.914 76.5946 55.605 77.0786 54.153C77.5626 52.701 77.8706 51.205 78.0026 49.665C78.1346 48.103 78.2006 46.629 78.2006 45.243V33.858ZM84.3056 41.25H88.1996C88.1996 41.25 88.1996 41.437 88.1996 41.811C88.1996 42.185 88.1886 42.493 88.1666 42.735C88.1446 45.155 88.1006 47.146 88.0346 48.708C87.9906 50.27 87.9026 51.48 87.7706 52.338C87.6606 53.196 87.4846 53.79 87.2426 54.12C86.9566 54.516 86.6596 54.813 86.3516 55.011C86.0656 55.187 85.7246 55.319 85.3286 55.407C84.9986 55.495 84.5916 55.55 84.1076 55.572C83.6456 55.594 83.1396 55.605 82.5896 55.605C82.5456 54.989 82.4356 54.318 82.2596 53.592C82.0836 52.844 81.8636 52.217 81.5996 51.711C81.9296 51.755 82.2156 51.788 82.4576 51.81C82.6996 51.81 82.8976 51.81 83.0516 51.81C83.3816 51.81 83.6456 51.667 83.8436 51.381C83.9536 51.205 84.0306 50.798 84.0746 50.16C84.1406 49.522 84.1846 48.543 84.2066 47.223C84.2506 45.903 84.2836 44.132 84.3056 41.91V41.25ZM88.1336 29.502H92.6216C92.5776 31.526 92.5776 33.583 92.6216 35.673C92.6656 37.763 92.7536 39.809 92.8856 41.811C93.0176 43.791 93.1716 45.639 93.3476 47.355C93.5456 49.071 93.7546 50.589 93.9746 51.909C94.2166 53.207 94.4696 54.23 94.7336 54.978C94.9976 55.704 95.2616 56.067 95.5256 56.067C95.7016 56.067 95.8556 55.682 95.9876 54.912C96.1196 54.142 96.1966 52.965 96.2186 51.381C96.6586 51.887 97.1866 52.382 97.8026 52.866C98.4186 53.328 98.9906 53.68 99.5186 53.922C99.3426 55.66 99.0676 57.002 98.6936 57.948C98.3416 58.916 97.8576 59.576 97.2416 59.928C96.6476 60.302 95.8776 60.489 94.9316 60.489C93.9636 60.489 93.1166 60.049 92.3906 59.169C91.6866 58.311 91.0816 57.123 90.5756 55.605C90.0916 54.065 89.6846 52.294 89.3546 50.292C89.0466 48.268 88.8046 46.101 88.6286 43.791C88.4526 41.459 88.3316 39.083 88.2656 36.663C88.1996 34.221 88.1556 31.834 88.1336 29.502ZM92.3246 31.053L95.6246 29.205C96.1746 29.799 96.7136 30.47 97.2416 31.218C97.7916 31.944 98.1876 32.593 98.4296 33.165L94.8986 35.178C94.7006 34.606 94.3486 33.935 93.8426 33.165C93.3366 32.373 92.8306 31.669 92.3246 31.053ZM94.5686 41.25L98.8586 42.009C97.8686 46.321 96.4056 50.083 94.4696 53.295C92.5556 56.507 90.1246 59.092 87.1766 61.05C86.9566 60.764 86.6486 60.412 86.2526 59.994C85.8566 59.598 85.4386 59.202 84.9986 58.806C84.5806 58.41 84.2066 58.091 83.8766 57.849C86.7586 56.221 89.0686 53.999 90.8066 51.183C92.5446 48.345 93.7986 45.034 94.5686 41.25ZM108.891 30.657H115.59V34.98H108.891V30.657ZM109.122 38.082H115.095V42.405H109.122V38.082ZM109.122 45.639H115.095V50.061H109.122V45.639ZM106.845 30.657H111.003V42.801C111.003 44.143 110.97 45.606 110.904 47.19C110.86 48.774 110.761 50.402 110.607 52.074C110.453 53.724 110.222 55.319 109.914 56.859C109.606 58.399 109.199 59.785 108.693 61.017C108.429 60.775 108.066 60.511 107.604 60.225C107.142 59.961 106.669 59.708 106.185 59.466C105.701 59.224 105.283 59.037 104.931 58.905C105.393 57.783 105.745 56.551 105.987 55.209C106.251 53.845 106.438 52.448 106.548 51.018C106.68 49.566 106.757 48.147 106.779 46.761C106.823 45.353 106.845 44.044 106.845 42.834V30.657ZM113.082 30.657H117.405V55.869C117.405 56.837 117.317 57.651 117.141 58.311C116.965 58.993 116.602 59.521 116.052 59.895C115.502 60.269 114.875 60.511 114.171 60.621C113.467 60.731 112.631 60.786 111.663 60.786C111.641 60.368 111.575 59.884 111.465 59.334C111.355 58.784 111.212 58.234 111.036 57.684C110.882 57.134 110.706 56.661 110.508 56.265C110.926 56.287 111.344 56.298 111.762 56.298C112.18 56.298 112.477 56.298 112.653 56.298C112.829 56.298 112.939 56.265 112.983 56.199C113.049 56.111 113.082 55.979 113.082 55.803V30.657ZM125.226 35.343H129.747V55.803C129.747 56.881 129.626 57.75 129.384 58.41C129.164 59.092 128.735 59.62 128.097 59.994C127.437 60.368 126.667 60.599 125.787 60.687C124.929 60.797 123.895 60.852 122.685 60.852C122.619 60.214 122.454 59.433 122.19 58.509C121.948 57.607 121.673 56.848 121.365 56.232C122.003 56.254 122.641 56.276 123.279 56.298C123.939 56.298 124.379 56.298 124.599 56.298C125.017 56.276 125.226 56.078 125.226 55.704V35.343ZM121.002 33.495L122.751 29.766C123.543 29.898 124.412 30.063 125.358 30.261C126.326 30.437 127.305 30.646 128.295 30.888C129.307 31.108 130.253 31.339 131.133 31.581C132.035 31.801 132.805 32.01 133.443 32.208L131.661 36.399C131.067 36.179 130.33 35.948 129.45 35.706C128.592 35.442 127.668 35.178 126.678 34.914C125.688 34.628 124.698 34.364 123.708 34.122C122.74 33.88 121.838 33.671 121.002 33.495ZM129.483 39.996C129.813 41.404 130.22 42.79 130.704 44.154C131.188 45.496 131.749 46.783 132.387 48.015C133.047 49.247 133.773 50.38 134.565 51.414C135.379 52.426 136.259 53.306 137.205 54.054C136.853 54.34 136.457 54.703 136.017 55.143C135.599 55.583 135.192 56.056 134.796 56.562C134.422 57.046 134.103 57.497 133.839 57.915C132.541 56.661 131.408 55.132 130.44 53.328C129.494 51.524 128.691 49.544 128.031 47.388C127.371 45.232 126.81 42.999 126.348 40.689L129.483 39.996ZM120.804 41.58H121.596L122.355 41.481L125.127 42.174C124.819 45.606 124.214 48.675 123.312 51.381C122.432 54.087 121.112 56.254 119.352 57.882C119.176 57.508 118.923 57.09 118.593 56.628C118.263 56.144 117.911 55.671 117.537 55.209C117.163 54.747 116.811 54.373 116.481 54.087C117.339 53.317 118.065 52.305 118.659 51.051C119.253 49.797 119.726 48.411 120.078 46.893C120.452 45.353 120.694 43.813 120.804 42.273V41.58ZM132.75 37.95L137.04 41.118C136.292 41.734 135.577 42.372 134.895 43.032C134.213 43.67 133.553 44.275 132.915 44.847C132.299 45.419 131.716 45.925 131.166 46.365L128.295 43.956C128.801 43.428 129.329 42.823 129.879 42.141C130.429 41.459 130.957 40.755 131.463 40.029C131.969 39.281 132.398 38.588 132.75 37.95ZM119.583 35.343H127.041V39.897H119.583V35.343ZM117.966 41.58H122.289V45.969H117.966V41.58ZM151.494 42.306V54.747H146.907V46.728H143.013V42.306H151.494ZM151.494 52.866C152.066 53.9 152.858 54.648 153.87 55.11C154.882 55.572 156.158 55.836 157.698 55.902C158.732 55.946 159.964 55.979 161.394 56.001C162.824 56.001 164.32 55.99 165.882 55.968C167.466 55.946 169.017 55.902 170.535 55.836C172.075 55.77 173.461 55.682 174.693 55.572C174.517 55.924 174.33 56.386 174.132 56.958C173.934 57.508 173.747 58.069 173.571 58.641C173.417 59.235 173.296 59.763 173.208 60.225C172.13 60.291 170.909 60.335 169.545 60.357C168.203 60.401 166.817 60.423 165.387 60.423C163.957 60.445 162.571 60.445 161.229 60.423C159.887 60.401 158.688 60.368 157.632 60.324C155.762 60.236 154.178 59.939 152.88 59.433C151.582 58.927 150.449 58.047 149.481 56.793C148.777 57.409 148.04 58.014 147.27 58.608C146.522 59.224 145.686 59.884 144.762 60.588L142.584 55.803C143.332 55.385 144.124 54.934 144.96 54.45C145.796 53.944 146.588 53.416 147.336 52.866H151.494ZM143.442 33.297L146.742 30.195C147.424 30.635 148.139 31.152 148.887 31.746C149.635 32.318 150.339 32.901 150.999 33.495C151.681 34.089 152.22 34.65 152.616 35.178L149.052 38.643C148.7 38.115 148.205 37.543 147.567 36.927C146.951 36.289 146.28 35.651 145.554 35.013C144.828 34.375 144.124 33.803 143.442 33.297ZM156.873 36.432L159.942 33.924C160.888 34.254 161.933 34.65 163.077 35.112C164.243 35.574 165.365 36.058 166.443 36.564C167.521 37.048 168.434 37.499 169.182 37.917L165.882 40.722C165.244 40.304 164.397 39.842 163.341 39.336C162.307 38.83 161.218 38.324 160.074 37.818C158.93 37.29 157.863 36.828 156.873 36.432ZM153.969 37.818H170.634V41.217H158.457V54.912H153.969V37.818ZM168.39 37.818H172.944V50.952C172.944 51.876 172.845 52.602 172.647 53.13C172.449 53.658 172.053 54.076 171.459 54.384C170.909 54.692 170.26 54.879 169.512 54.945C168.764 55.011 167.928 55.044 167.004 55.044C166.916 54.472 166.762 53.834 166.542 53.13C166.322 52.426 166.091 51.821 165.849 51.315C166.223 51.337 166.619 51.348 167.037 51.348C167.477 51.348 167.774 51.348 167.928 51.348C168.104 51.348 168.225 51.315 168.291 51.249C168.357 51.161 168.39 51.04 168.39 50.886V37.818ZM154.431 30.492H169.743V34.056H154.431V30.492ZM156.477 42.372H169.875V45.639H156.477V42.372ZM156.477 46.86H169.875V50.259H156.477V46.86ZM161.262 39.468H165.519V54.78H161.262V39.468ZM167.994 30.492H169.083L170.007 30.261L172.812 32.538C172.02 33.286 171.14 34.056 170.172 34.848C169.226 35.618 168.236 36.355 167.202 37.059C166.168 37.741 165.145 38.346 164.133 38.874C163.869 38.478 163.495 38.016 163.011 37.488C162.527 36.96 162.12 36.542 161.79 36.234C162.582 35.816 163.374 35.321 164.166 34.749C164.98 34.155 165.728 33.561 166.41 32.967C167.092 32.351 167.62 31.801 167.994 31.317V30.492ZM189.18 42.306V54.747H184.494V46.728H181.095V42.306H189.18ZM189.18 52.668C189.796 53.68 190.665 54.417 191.787 54.879C192.909 55.341 194.273 55.605 195.879 55.671C196.891 55.715 198.079 55.748 199.443 55.77C200.807 55.77 202.237 55.759 203.733 55.737C205.251 55.693 206.736 55.638 208.188 55.572C209.662 55.506 210.993 55.418 212.181 55.308C212.005 55.682 211.807 56.166 211.587 56.76C211.389 57.354 211.202 57.948 211.026 58.542C210.872 59.158 210.751 59.708 210.663 60.192C209.607 60.258 208.43 60.302 207.132 60.324C205.856 60.368 204.536 60.39 203.172 60.39C201.83 60.412 200.521 60.412 199.245 60.39C197.969 60.368 196.814 60.335 195.78 60.291C193.822 60.203 192.15 59.906 190.764 59.4C189.4 58.916 188.168 58.036 187.068 56.76C186.386 57.354 185.682 57.959 184.956 58.575C184.252 59.191 183.449 59.851 182.547 60.555L180.237 55.539C180.963 55.121 181.722 54.67 182.514 54.186C183.306 53.702 184.065 53.196 184.791 52.668H189.18ZM180.963 33.165L184.527 30.294C185.165 30.734 185.825 31.24 186.507 31.812C187.211 32.384 187.86 32.967 188.454 33.561C189.07 34.155 189.565 34.705 189.939 35.211L186.111 38.379C185.803 37.873 185.363 37.312 184.791 36.696C184.219 36.08 183.592 35.464 182.91 34.848C182.25 34.21 181.601 33.649 180.963 33.165ZM198.255 39.831H202.875V50.853C202.875 51.843 202.765 52.624 202.545 53.196C202.347 53.746 201.929 54.175 201.291 54.483C200.653 54.791 199.927 54.978 199.113 55.044C198.321 55.11 197.408 55.143 196.374 55.143C196.308 54.549 196.154 53.878 195.912 53.13C195.67 52.382 195.428 51.722 195.186 51.15C195.648 51.172 196.143 51.194 196.671 51.216C197.199 51.216 197.551 51.216 197.727 51.216C198.079 51.216 198.255 51.062 198.255 50.754V39.831ZM193.008 46.53L197.133 47.52C196.649 48.774 196.022 49.984 195.252 51.15C194.482 52.294 193.679 53.251 192.843 54.021C192.579 53.779 192.227 53.515 191.787 53.229C191.369 52.921 190.929 52.635 190.467 52.371C190.027 52.085 189.642 51.854 189.312 51.678C190.148 51.04 190.885 50.27 191.523 49.368C192.161 48.444 192.656 47.498 193.008 46.53ZM203.304 48.081L207.099 46.365C207.561 46.937 208.034 47.564 208.518 48.246C209.024 48.928 209.497 49.599 209.937 50.259C210.377 50.919 210.729 51.524 210.993 52.074L206.967 54.021C206.747 53.493 206.428 52.888 206.01 52.206C205.614 51.502 205.174 50.798 204.69 50.094C204.228 49.368 203.766 48.697 203.304 48.081ZM194.394 37.257H206.736V41.085H194.394V37.257ZM190.599 42.207H210.828V46.101H190.599V42.207ZM200.334 33.693C199.674 34.507 198.86 35.343 197.892 36.201C196.924 37.037 195.868 37.829 194.724 38.577C193.58 39.303 192.414 39.919 191.226 40.425C190.984 39.809 190.621 39.094 190.137 38.28C189.675 37.444 189.224 36.762 188.784 36.234C189.994 35.772 191.171 35.178 192.315 34.452C193.481 33.726 194.537 32.934 195.483 32.076C196.451 31.196 197.232 30.349 197.826 29.535H202.512C203.37 30.503 204.305 31.405 205.317 32.241C206.351 33.077 207.44 33.814 208.584 34.452C209.728 35.068 210.905 35.563 212.115 35.937C211.631 36.553 211.136 37.279 210.63 38.115C210.146 38.929 209.728 39.688 209.376 40.392C208.32 39.908 207.22 39.303 206.076 38.577C204.932 37.851 203.854 37.059 202.842 36.201C201.852 35.343 201.016 34.507 200.334 33.693ZM233.862 41.25C232.872 41.25 232.036 40.92 231.354 40.26C230.694 39.578 230.364 38.764 230.364 37.818C230.364 36.828 230.694 36.003 231.354 35.343C232.036 34.661 232.872 34.32 233.862 34.32C234.852 34.32 235.677 34.661 236.337 35.343C237.019 36.003 237.36 36.828 237.36 37.818C237.36 38.764 237.019 39.578 236.337 40.26C235.677 40.92 234.852 41.25 233.862 41.25ZM233.862 56.76C232.872 56.76 232.036 56.43 231.354 55.77C230.694 55.088 230.364 54.274 230.364 53.328C230.364 52.338 230.694 51.513 231.354 50.853C232.036 50.171 232.872 49.83 233.862 49.83C234.852 49.83 235.677 50.171 236.337 50.853C237.019 51.513 237.36 52.338 237.36 53.328C237.36 54.274 237.019 55.088 236.337 55.77C235.677 56.43 234.852 56.76 233.862 56.76ZM257.127 34.122H285.969V38.742H257.127V34.122ZM256.335 50.853H286.662V55.539H256.335V50.853ZM270.987 39.501H276.168V60.885H270.987V39.501ZM260.361 48.51C260.273 48.18 260.13 47.718 259.932 47.124C259.734 46.53 259.514 45.914 259.272 45.276C259.03 44.616 258.799 44.055 258.579 43.593C259.085 43.417 259.525 43.142 259.899 42.768C260.295 42.372 260.735 41.822 261.219 41.118C261.483 40.788 261.835 40.227 262.275 39.435C262.737 38.621 263.232 37.664 263.76 36.564C264.31 35.464 264.838 34.276 265.344 33C265.872 31.724 266.334 30.437 266.73 29.139L272.406 30.558C271.636 32.472 270.756 34.353 269.766 36.201C268.776 38.049 267.753 39.787 266.697 41.415C265.641 43.021 264.618 44.462 263.628 45.738V45.87C263.628 45.87 263.463 45.969 263.133 46.167C262.803 46.343 262.418 46.574 261.978 46.86C261.56 47.146 261.186 47.443 260.856 47.751C260.526 48.037 260.361 48.29 260.361 48.51ZM260.361 48.51V44.946L262.902 43.428H283.791V47.982H264.321C263.771 47.982 263.21 48.004 262.638 48.048C262.066 48.092 261.571 48.158 261.153 48.246C260.735 48.312 260.471 48.4 260.361 48.51ZM310.818 55.638H320.949V59.73H310.818V55.638ZM312.138 32.538H320.322V36.564H312.138V32.538ZM308.838 48.378H322.863V60.687H318.276V52.371H313.227V60.786H308.838V48.378ZM318.672 32.538H319.497L320.322 32.373L323.358 33.66C322.786 35.75 322.027 37.653 321.081 39.369C320.157 41.063 319.068 42.592 317.814 43.956C316.56 45.298 315.174 46.486 313.656 47.52C312.138 48.554 310.51 49.434 308.772 50.16C308.486 49.61 308.079 48.983 307.551 48.279C307.045 47.553 306.561 46.981 306.099 46.563C307.595 46.035 309.014 45.342 310.356 44.484C311.698 43.604 312.919 42.592 314.019 41.448C315.119 40.304 316.065 39.05 316.857 37.686C317.649 36.3 318.254 34.837 318.672 33.297V32.538ZM312.006 29.502L316.56 30.624C316.076 32.098 315.493 33.55 314.811 34.98C314.129 36.388 313.37 37.708 312.534 38.94C311.72 40.15 310.873 41.206 309.993 42.108C309.729 41.822 309.366 41.481 308.904 41.085C308.464 40.689 308.002 40.304 307.518 39.93C307.056 39.534 306.649 39.226 306.297 39.006C307.551 37.906 308.673 36.509 309.663 34.815C310.675 33.121 311.456 31.35 312.006 29.502ZM312.534 34.65C312.996 35.728 313.612 36.817 314.382 37.917C315.152 39.017 316.065 40.062 317.121 41.052C318.199 42.042 319.42 42.933 320.784 43.725C322.17 44.517 323.699 45.144 325.371 45.606C325.063 45.914 324.711 46.31 324.315 46.794C323.941 47.278 323.578 47.773 323.226 48.279C322.896 48.785 322.621 49.247 322.401 49.665C320.707 49.049 319.156 48.257 317.748 47.289C316.362 46.321 315.13 45.243 314.052 44.055C312.974 42.867 312.028 41.635 311.214 40.359C310.422 39.083 309.773 37.829 309.267 36.597L312.534 34.65ZM294.582 44.022H298.443V56.067H294.582V44.022ZM299.103 34.749V38.049H302.403V34.749H299.103ZM294.978 30.69H306.792V42.108H294.978V30.69ZM299.565 40.59H303.789V55.143H299.565V40.59ZM293.262 55.242C294.472 55.044 295.858 54.791 297.42 54.483C298.982 54.175 300.621 53.845 302.337 53.493C304.053 53.119 305.747 52.745 307.419 52.371L307.881 56.595C305.505 57.167 303.096 57.739 300.654 58.311C298.212 58.883 296.012 59.389 294.054 59.829L293.262 55.242ZM301.314 45.474H307.122V49.632H301.314V45.474ZM335.502 31.449H358.404V36.399H335.502V31.449ZM331.674 40.854H361.836V45.837H331.674V40.854ZM340.947 43.824L346.92 45.309C346.348 46.739 345.743 48.169 345.105 49.599C344.467 51.007 343.829 52.338 343.191 53.592C342.553 54.846 341.937 55.968 341.343 56.958L336.723 55.473C337.141 54.681 337.548 53.812 337.944 52.866C338.362 51.898 338.758 50.897 339.132 49.863C339.506 48.829 339.847 47.806 340.155 46.794C340.463 45.76 340.727 44.77 340.947 43.824ZM332.697 54.417C334.325 54.373 336.14 54.318 338.142 54.252C340.166 54.186 342.289 54.12 344.511 54.054C346.755 53.966 349.032 53.878 351.342 53.79C353.674 53.702 355.962 53.614 358.206 53.526L358.008 58.146C355.808 58.278 353.575 58.41 351.309 58.542C349.043 58.674 346.821 58.795 344.643 58.905C342.465 59.037 340.386 59.147 338.406 59.235C336.448 59.345 334.655 59.433 333.027 59.499L332.697 54.417ZM350.286 49.665L354.972 47.421C355.94 48.521 356.886 49.709 357.81 50.985C358.734 52.261 359.57 53.526 360.318 54.78C361.088 56.012 361.704 57.156 362.166 58.212L357.15 60.918C356.776 59.884 356.215 58.707 355.467 57.387C354.741 56.067 353.927 54.736 353.025 53.394C352.123 52.03 351.21 50.787 350.286 49.665ZM368.964 37.356H379.392V41.778H368.964V37.356ZM371.868 29.535H376.455V60.885H371.868V29.535ZM380.184 35.574H393.417V40.227H380.184V35.574ZM391.437 35.574H395.991C395.991 35.574 395.991 35.706 395.991 35.97C395.991 36.234 395.98 36.531 395.958 36.861C395.958 37.191 395.958 37.455 395.958 37.653C395.892 41.151 395.826 44.121 395.76 46.563C395.694 49.005 395.606 51.029 395.496 52.635C395.386 54.219 395.243 55.462 395.067 56.364C394.891 57.266 394.66 57.915 394.374 58.311C393.956 58.971 393.516 59.433 393.054 59.697C392.592 59.961 392.053 60.159 391.437 60.291C390.887 60.401 390.216 60.467 389.424 60.489C388.632 60.511 387.818 60.511 386.982 60.489C386.96 59.829 386.817 59.059 386.553 58.179C386.289 57.299 385.959 56.54 385.563 55.902C386.311 55.968 386.993 56.012 387.609 56.034C388.247 56.034 388.742 56.034 389.094 56.034C389.358 56.034 389.578 55.99 389.754 55.902C389.952 55.814 390.128 55.66 390.282 55.44C390.48 55.198 390.634 54.681 390.744 53.889C390.876 53.097 390.986 51.964 391.074 50.49C391.162 48.994 391.228 47.113 391.272 44.847C391.338 42.559 391.393 39.798 391.437 36.564V35.574ZM379.293 41.976L383.484 42.801C383.154 44.495 382.692 46.145 382.098 47.751C381.504 49.335 380.833 50.666 380.085 51.744C379.821 51.524 379.469 51.271 379.029 50.985C378.589 50.677 378.138 50.391 377.676 50.127C377.214 49.841 376.818 49.61 376.488 49.434C377.192 48.532 377.775 47.421 378.237 46.101C378.721 44.759 379.073 43.384 379.293 41.976ZM394.506 42.768L398.301 41.943C398.609 42.999 398.917 44.132 399.225 45.342C399.555 46.552 399.852 47.729 400.116 48.873C400.38 49.995 400.578 50.974 400.71 51.81L396.618 52.866C396.508 52.008 396.343 51.007 396.123 49.863C395.903 48.697 395.65 47.498 395.364 46.266C395.078 45.012 394.792 43.846 394.506 42.768ZM384.672 29.634H389.193V37.356C389.193 39.16 389.105 41.096 388.929 43.164C388.753 45.21 388.379 47.289 387.807 49.401C387.257 51.491 386.41 53.526 385.266 55.506C384.122 57.464 382.571 59.268 380.613 60.918C380.349 60.566 379.997 60.17 379.557 59.73C379.139 59.312 378.699 58.905 378.237 58.509C377.775 58.113 377.357 57.805 376.983 57.585C378.743 56.177 380.129 54.626 381.141 52.932C382.175 51.238 382.945 49.489 383.451 47.685C383.957 45.859 384.287 44.066 384.441 42.306C384.595 40.524 384.672 38.863 384.672 37.323V29.634ZM413.712 37.257H430.08V41.25H413.712V37.257ZM415.197 43.23H419.586V56.76H415.197V43.23ZM417.606 43.23H428.793V54.681H417.606V50.754H424.371V47.124H417.606V43.23ZM407.706 31.02H434.139V35.541H412.359V60.885H407.706V31.02ZM431.565 31.02H436.284V55.572C436.284 56.738 436.152 57.673 435.888 58.377C435.624 59.081 435.14 59.62 434.436 59.994C433.732 60.39 432.885 60.643 431.895 60.753C430.905 60.863 429.728 60.918 428.364 60.918C428.32 60.478 428.21 59.961 428.034 59.367C427.88 58.795 427.693 58.223 427.473 57.651C427.253 57.079 427.022 56.584 426.78 56.166C427.55 56.21 428.342 56.243 429.156 56.265C429.97 56.265 430.52 56.265 430.806 56.265C431.092 56.243 431.29 56.177 431.4 56.067C431.51 55.957 431.565 55.77 431.565 55.506V31.02ZM453.312 56.694H468.624V60.159H453.312V56.694ZM457.14 36.597H461.76V40.755H457.14V36.597ZM445.161 38.709H474.333V45.507H469.647V42.24H449.649V45.507H445.161V38.709ZM453.18 43.263H468.888V51.084H453.18V47.718H464.103V46.629H453.18V43.263ZM453.378 52.14H471.627V60.951H466.842V55.572H453.378V52.14ZM450.507 43.263H455.061V60.951H450.507V43.263ZM448.824 31.713H459.087V35.442H448.824V31.713ZM462.486 31.713H474.993V35.442H462.486V31.713ZM448.692 29.205L453.147 30.426C452.487 31.922 451.651 33.385 450.639 34.815C449.627 36.245 448.626 37.444 447.636 38.412C447.328 38.148 446.932 37.862 446.448 37.554C445.986 37.224 445.513 36.905 445.029 36.597C444.545 36.267 444.116 36.014 443.742 35.838C444.754 35.046 445.7 34.056 446.58 32.868C447.482 31.658 448.186 30.437 448.692 29.205ZM462.387 29.205L466.941 30.327C466.347 31.735 465.577 33.099 464.631 34.419C463.707 35.717 462.761 36.795 461.793 37.653C461.463 37.411 461.045 37.147 460.539 36.861C460.033 36.575 459.516 36.3 458.988 36.036C458.46 35.772 457.998 35.563 457.602 35.409C458.636 34.683 459.571 33.759 460.407 32.637C461.265 31.515 461.925 30.371 462.387 29.205ZM449.715 34.617L453.774 33.528C454.192 34.078 454.61 34.716 455.028 35.442C455.468 36.146 455.798 36.762 456.018 37.29L451.728 38.511C451.574 38.005 451.299 37.378 450.903 36.63C450.507 35.882 450.111 35.211 449.715 34.617ZM464.862 34.749L469.086 33.66C469.548 34.21 470.021 34.837 470.505 35.541C471.011 36.223 471.396 36.828 471.66 37.356L467.205 38.544C467.007 38.038 466.677 37.422 466.215 36.696C465.753 35.97 465.302 35.321 464.862 34.749ZM493.473 46.794H511.029V51.084H493.473V46.794ZM491.658 55.638H512.778V59.961H491.658V55.638ZM491.889 32.043H512.58V38.709H508.224V35.97H496.014V38.709H491.889V32.043ZM499.941 29.502H504.594V34.716H499.941V29.502ZM499.776 49.17H504.495V57.651H499.776V49.17ZM502.647 35.706H507.036V40.788C507.036 41.228 507.069 41.503 507.135 41.613C507.201 41.701 507.344 41.745 507.564 41.745C507.63 41.745 507.729 41.745 507.861 41.745C507.993 41.745 508.125 41.745 508.257 41.745C508.389 41.745 508.488 41.745 508.554 41.745C508.73 41.745 508.862 41.69 508.95 41.58C509.038 41.47 509.104 41.239 509.148 40.887C509.214 40.535 509.258 40.018 509.28 39.336C509.676 39.644 510.248 39.952 510.996 40.26C511.766 40.546 512.437 40.755 513.009 40.887C512.789 42.691 512.382 43.923 511.788 44.583C511.216 45.221 510.314 45.54 509.082 45.54C508.906 45.54 508.719 45.54 508.521 45.54C508.323 45.54 508.114 45.54 507.894 45.54C507.696 45.54 507.498 45.54 507.3 45.54C507.124 45.54 506.948 45.54 506.772 45.54C505.628 45.54 504.759 45.397 504.165 45.111C503.571 44.803 503.164 44.308 502.944 43.626C502.746 42.922 502.647 41.987 502.647 40.821V35.706ZM497.136 35.838H501.426C501.382 37.224 501.261 38.478 501.063 39.6C500.887 40.722 500.546 41.712 500.04 42.57C499.534 43.406 498.786 44.132 497.796 44.748C496.806 45.364 495.486 45.87 493.836 46.266C493.682 45.76 493.374 45.166 492.912 44.484C492.472 43.802 492.043 43.252 491.625 42.834C492.901 42.57 493.902 42.251 494.628 41.877C495.354 41.481 495.893 41.008 496.245 40.458C496.597 39.908 496.828 39.259 496.938 38.511C497.048 37.741 497.114 36.85 497.136 35.838ZM481.263 45.837C482.583 45.463 484.156 44.979 485.982 44.385C487.83 43.791 489.689 43.175 491.559 42.537L492.384 46.761C490.712 47.377 488.996 48.004 487.236 48.642C485.498 49.28 483.881 49.863 482.385 50.391L481.263 45.837ZM481.824 35.574H491.658V39.963H481.824V35.574ZM484.926 29.568H489.315V55.968C489.315 57.002 489.216 57.838 489.018 58.476C488.82 59.114 488.435 59.62 487.863 59.994C487.313 60.368 486.642 60.61 485.85 60.72C485.08 60.852 484.145 60.918 483.045 60.918C483.001 60.324 482.858 59.587 482.616 58.707C482.396 57.849 482.143 57.101 481.857 56.463C482.385 56.485 482.891 56.507 483.375 56.529C483.859 56.529 484.2 56.518 484.398 56.496C484.596 56.496 484.728 56.463 484.794 56.397C484.882 56.331 484.926 56.188 484.926 55.968V29.568ZM527.496 40.854H541.191V45.276H527.496V40.854ZM528.816 33.429H546.207V38.016H528.816V33.429ZM519.774 48.048H549.936V52.635H519.774V48.048ZM539.541 40.854H544.491C544.491 40.854 544.48 40.986 544.458 41.25C544.458 41.492 544.447 41.778 544.425 42.108C544.403 42.416 544.381 42.68 544.359 42.9C544.117 46.266 543.853 49.038 543.567 51.216C543.303 53.372 542.995 55.055 542.643 56.265C542.291 57.475 541.873 58.355 541.389 58.905C540.839 59.543 540.267 59.983 539.673 60.225C539.079 60.467 538.375 60.643 537.561 60.753C536.923 60.841 536.109 60.885 535.119 60.885C534.151 60.885 533.15 60.874 532.116 60.852C532.072 60.148 531.885 59.334 531.555 58.41C531.247 57.508 530.862 56.716 530.4 56.034C531.456 56.122 532.457 56.177 533.403 56.199C534.371 56.221 535.097 56.232 535.581 56.232C535.933 56.232 536.23 56.21 536.472 56.166C536.714 56.1 536.956 55.968 537.198 55.77C537.55 55.462 537.869 54.769 538.155 53.691C538.441 52.591 538.694 51.051 538.914 49.071C539.156 47.091 539.365 44.616 539.541 41.646V40.854ZM526.869 29.502L531.885 29.964C531.665 31.372 531.423 32.824 531.159 34.32C530.917 35.816 530.653 37.301 530.367 38.775C530.103 40.227 529.839 41.624 529.575 42.966C529.311 44.286 529.058 45.474 528.816 46.53L523.734 46.134C524.02 45.056 524.306 43.846 524.592 42.504C524.878 41.14 525.164 39.721 525.45 38.247C525.736 36.751 526 35.266 526.242 33.792C526.484 32.296 526.693 30.866 526.869 29.502ZM575.346 29.535H580.164V37.554H575.346V29.535ZM567.294 34.815H587.952V39.402H567.294V34.815ZM574.455 42.933H583.695V47.256H573.729L574.455 42.933ZM581.946 42.933H586.632C586.632 42.933 586.621 43.054 586.599 43.296C586.599 43.516 586.588 43.78 586.566 44.088C586.566 44.374 586.555 44.616 586.533 44.814C586.423 47.08 586.302 49.038 586.17 50.688C586.06 52.316 585.928 53.691 585.774 54.813C585.62 55.913 585.433 56.804 585.213 57.486C585.015 58.168 584.784 58.674 584.52 59.004C584.102 59.554 583.662 59.939 583.2 60.159C582.738 60.379 582.199 60.544 581.583 60.654C581.099 60.742 580.472 60.797 579.702 60.819C578.954 60.841 578.162 60.841 577.326 60.819C577.304 60.115 577.161 59.323 576.897 58.443C576.633 57.563 576.303 56.815 575.907 56.199C576.611 56.265 577.26 56.309 577.854 56.331C578.448 56.331 578.921 56.331 579.273 56.331C579.537 56.331 579.757 56.309 579.933 56.265C580.131 56.199 580.318 56.067 580.494 55.869C580.736 55.605 580.945 55.044 581.121 54.186C581.297 53.306 581.451 52.019 581.583 50.325C581.715 48.609 581.836 46.398 581.946 43.692V42.933ZM572.607 38.742H577.722C577.634 40.722 577.469 42.724 577.227 44.748C577.007 46.772 576.611 48.763 576.039 50.721C575.489 52.657 574.664 54.505 573.564 56.265C572.486 58.003 571.045 59.565 569.241 60.951C568.889 60.335 568.383 59.675 567.723 58.971C567.085 58.267 566.447 57.695 565.809 57.255C567.085 56.331 568.13 55.308 568.944 54.186C569.78 53.064 570.429 51.876 570.891 50.622C571.375 49.346 571.727 48.048 571.947 46.728C572.167 45.386 572.321 44.044 572.409 42.702C572.497 41.338 572.563 40.018 572.607 38.742ZM561.09 39.633L565.776 34.947L565.842 35.013V60.819H561.09V39.633ZM564.192 29.7L568.977 31.251C568.207 33.187 567.283 35.145 566.205 37.125C565.149 39.083 563.994 40.931 562.74 42.669C561.508 44.407 560.232 45.925 558.912 47.223C558.758 46.805 558.516 46.277 558.186 45.639C557.856 44.979 557.504 44.319 557.13 43.659C556.756 42.999 556.426 42.471 556.14 42.075C557.218 41.085 558.252 39.93 559.242 38.61C560.254 37.29 561.178 35.871 562.014 34.353C562.872 32.835 563.598 31.284 564.192 29.7ZM611.943 57.123L615.078 54.087C616.266 54.461 617.498 54.879 618.774 55.341C620.05 55.781 621.271 56.21 622.437 56.628C623.603 57.046 624.593 57.42 625.407 57.75L621.282 60.918C620.578 60.566 619.72 60.17 618.708 59.73C617.696 59.312 616.607 58.872 615.441 58.41C614.275 57.948 613.109 57.519 611.943 57.123ZM595.311 51.018H624.879V54.912H595.311V51.018ZM596.301 31.68H624.252V35.64H596.301V31.68ZM607.455 29.502H612.537V37.983H607.455V29.502ZM604.683 42.867V43.857H615.738V42.867H604.683ZM604.683 46.398V47.421H615.738V46.398H604.683ZM604.683 39.303V40.293H615.738V39.303H604.683ZM600.063 36.597H620.622V50.127H600.063V36.597ZM604.353 54.351L608.247 57.156C607.389 57.662 606.388 58.157 605.244 58.641C604.122 59.125 602.956 59.565 601.746 59.961C600.536 60.379 599.381 60.709 598.281 60.951C597.885 60.489 597.368 59.939 596.73 59.301C596.114 58.663 595.542 58.124 595.014 57.684C596.136 57.464 597.28 57.178 598.446 56.826C599.634 56.452 600.745 56.045 601.779 55.605C602.835 55.165 603.693 54.747 604.353 54.351ZM638.871 51.909L643.887 53.79C643.205 54.604 642.413 55.44 641.511 56.298C640.631 57.134 639.718 57.926 638.772 58.674C637.826 59.422 636.935 60.06 636.099 60.588C635.769 60.258 635.34 59.884 634.812 59.466C634.284 59.048 633.745 58.63 633.195 58.212C632.645 57.816 632.161 57.497 631.743 57.255C632.623 56.837 633.503 56.342 634.383 55.77C635.285 55.176 636.121 54.549 636.891 53.889C637.683 53.229 638.343 52.569 638.871 51.909ZM651.18 54.45L655.239 51.711C656.075 52.217 656.977 52.8 657.945 53.46C658.935 54.12 659.87 54.791 660.75 55.473C661.63 56.155 662.356 56.793 662.928 57.387L658.539 60.489C658.055 59.895 657.395 59.235 656.559 58.509C655.745 57.805 654.854 57.101 653.886 56.397C652.94 55.671 652.038 55.022 651.18 54.45ZM634.944 40.557L638.277 37.455C639.157 37.961 640.092 38.544 641.082 39.204C642.094 39.864 643.062 40.546 643.986 41.25C644.91 41.932 645.658 42.581 646.23 43.197L642.633 46.695C642.127 46.079 641.434 45.408 640.554 44.682C639.696 43.956 638.772 43.23 637.782 42.504C636.792 41.778 635.846 41.129 634.944 40.557ZM652.038 44.616L655.998 42.108C656.856 42.834 657.769 43.659 658.737 44.583C659.727 45.485 660.651 46.398 661.509 47.322C662.389 48.224 663.093 49.06 663.621 49.83L659.298 52.701C658.836 51.953 658.198 51.106 657.384 50.16C656.57 49.214 655.69 48.257 654.744 47.289C653.82 46.299 652.918 45.408 652.038 44.616ZM645.009 49.005H650.157V60.885H645.009V49.005ZM632.502 46.728C634.218 46.706 636.143 46.673 638.277 46.629C640.411 46.585 642.655 46.541 645.009 46.497C647.385 46.453 649.794 46.409 652.236 46.365C654.7 46.299 657.12 46.233 659.496 46.167L659.265 50.523C656.163 50.677 653.017 50.82 649.827 50.952C646.659 51.062 643.623 51.172 640.719 51.282C637.837 51.37 635.252 51.447 632.964 51.513L632.502 46.728ZM651.939 35.508L656.625 38.016C655.503 39.116 654.326 40.216 653.094 41.316C651.862 42.416 650.597 43.483 649.299 44.517C648.023 45.551 646.758 46.519 645.504 47.421C644.25 48.323 643.062 49.137 641.94 49.863L638.145 47.388C639.289 46.64 640.477 45.804 641.709 44.88C642.963 43.934 644.206 42.933 645.438 41.877C646.67 40.821 647.836 39.754 648.936 38.676C650.058 37.576 651.059 36.52 651.939 35.508ZM643.689 33.198L648.441 35.475C647.737 36.289 647 37.092 646.23 37.884C645.46 38.676 644.701 39.424 643.953 40.128C643.205 40.81 642.501 41.415 641.841 41.943L637.914 39.798C638.552 39.226 639.223 38.577 639.927 37.851C640.653 37.103 641.346 36.322 642.006 35.508C642.666 34.694 643.227 33.924 643.689 33.198ZM657.483 29.733L660.849 33.792C658.935 34.188 656.9 34.529 654.744 34.815C652.588 35.101 650.366 35.343 648.078 35.541C645.79 35.717 643.513 35.849 641.247 35.937C638.981 36.025 636.77 36.069 634.614 36.069C634.57 35.453 634.427 34.727 634.185 33.891C633.965 33.033 633.734 32.329 633.492 31.779C635.626 31.735 637.782 31.669 639.96 31.581C642.16 31.471 644.305 31.339 646.395 31.185C648.507 31.009 650.498 30.8 652.368 30.558C654.26 30.316 655.965 30.041 657.483 29.733ZM692.727 39.765L696.39 37.917C696.984 38.687 697.578 39.523 698.172 40.425C698.788 41.327 699.349 42.218 699.855 43.098C700.383 43.978 700.779 44.781 701.043 45.507L697.017 47.619C696.797 46.915 696.456 46.112 695.994 45.21C695.532 44.286 695.015 43.351 694.443 42.405C693.871 41.459 693.299 40.579 692.727 39.765ZM681.705 33.594H700.515V37.851H681.705V33.594ZM690.945 46.497H695.664V55.176C695.664 55.726 695.686 56.078 695.73 56.232C695.774 56.364 695.873 56.43 696.027 56.43C696.071 56.43 696.126 56.43 696.192 56.43C696.258 56.43 696.313 56.43 696.357 56.43C696.423 56.43 696.478 56.43 696.522 56.43C696.676 56.43 696.786 56.309 696.852 56.067C696.94 55.803 697.006 55.308 697.05 54.582C697.094 53.834 697.127 52.734 697.149 51.282C697.611 51.678 698.249 52.052 699.063 52.404C699.877 52.734 700.581 52.987 701.175 53.163C701.065 55.033 700.856 56.496 700.548 57.552C700.262 58.608 699.833 59.345 699.261 59.763C698.711 60.203 697.963 60.423 697.017 60.423C696.863 60.423 696.698 60.423 696.522 60.423C696.368 60.423 696.203 60.423 696.027 60.423C695.851 60.423 695.686 60.423 695.532 60.423C695.378 60.423 695.224 60.423 695.07 60.423C693.948 60.423 693.09 60.247 692.496 59.895C691.902 59.565 691.495 59.015 691.275 58.245C691.055 57.497 690.945 56.485 690.945 55.209V46.497ZM684.708 46.53H689.427C689.361 48.202 689.229 49.775 689.031 51.249C688.855 52.701 688.525 54.054 688.041 55.308C687.557 56.54 686.864 57.651 685.962 58.641C685.06 59.631 683.85 60.5 682.332 61.248C682.156 60.83 681.903 60.368 681.573 59.862C681.243 59.356 680.88 58.861 680.484 58.377C680.11 57.915 679.747 57.541 679.395 57.255C680.605 56.705 681.551 56.078 682.233 55.374C682.937 54.648 683.454 53.845 683.784 52.965C684.136 52.085 684.367 51.106 684.477 50.028C684.587 48.95 684.664 47.784 684.708 46.53ZM682.167 47.289L682.002 43.824L684.213 42.438L696.39 41.382C696.412 41.976 696.467 42.647 696.555 43.395C696.665 44.143 696.764 44.748 696.852 45.21C694.542 45.452 692.584 45.672 690.978 45.87C689.394 46.046 688.085 46.2 687.051 46.332C686.017 46.464 685.181 46.585 684.543 46.695C683.927 46.783 683.443 46.882 683.091 46.992C682.739 47.08 682.431 47.179 682.167 47.289ZM687.678 30.459L692.232 29.37C692.496 29.92 692.771 30.547 693.057 31.251C693.343 31.955 693.563 32.549 693.717 33.033L688.899 34.32C688.789 33.814 688.613 33.198 688.371 32.472C688.151 31.746 687.92 31.075 687.678 30.459ZM682.167 47.289C682.101 46.893 681.98 46.409 681.804 45.837C681.65 45.243 681.485 44.66 681.309 44.088C681.133 43.494 680.968 43.032 680.814 42.702C681.21 42.614 681.639 42.482 682.101 42.306C682.585 42.13 683.025 41.866 683.421 41.514C683.641 41.316 683.971 40.953 684.411 40.425C684.851 39.897 685.324 39.303 685.83 38.643C686.358 37.983 686.864 37.334 687.348 36.696C687.832 36.036 688.228 35.486 688.536 35.046H694.113C693.607 35.728 693.046 36.498 692.43 37.356C691.814 38.192 691.176 39.05 690.516 39.93C689.878 40.788 689.24 41.602 688.602 42.372C687.986 43.142 687.425 43.813 686.919 44.385C686.919 44.385 686.754 44.451 686.424 44.583C686.116 44.693 685.72 44.858 685.236 45.078C684.774 45.276 684.301 45.507 683.817 45.771C683.355 46.013 682.959 46.266 682.629 46.53C682.321 46.794 682.167 47.047 682.167 47.289ZM671.046 52.404C670.98 52.096 670.859 51.678 670.683 51.15C670.507 50.6 670.309 50.039 670.089 49.467C669.891 48.895 669.693 48.411 669.495 48.015C669.979 47.905 670.419 47.685 670.815 47.355C671.211 47.003 671.662 46.53 672.168 45.936C672.432 45.65 672.806 45.177 673.29 44.517C673.796 43.857 674.335 43.076 674.907 42.174C675.501 41.25 676.095 40.26 676.689 39.204C677.305 38.148 677.855 37.07 678.339 35.97L682.464 38.577C681.386 40.623 680.099 42.647 678.603 44.649C677.107 46.651 675.6 48.433 674.082 49.995V50.127C674.082 50.127 673.928 50.204 673.62 50.358C673.312 50.512 672.96 50.71 672.564 50.952C672.168 51.194 671.816 51.447 671.508 51.711C671.2 51.975 671.046 52.206 671.046 52.404ZM671.046 52.404L670.65 48.444L672.564 47.025L681.276 45.243C681.21 45.903 681.177 46.651 681.177 47.487C681.177 48.301 681.21 48.961 681.276 49.467C679.34 49.929 677.756 50.314 676.524 50.622C675.292 50.93 674.313 51.194 673.587 51.414C672.883 51.612 672.344 51.788 671.97 51.942C671.596 52.096 671.288 52.25 671.046 52.404ZM670.815 44.286C670.727 43.956 670.584 43.505 670.386 42.933C670.21 42.361 670.001 41.767 669.759 41.151C669.539 40.513 669.33 39.974 669.132 39.534C669.506 39.424 669.847 39.215 670.155 38.907C670.463 38.577 670.793 38.159 671.145 37.653C671.321 37.411 671.552 37.004 671.838 36.432C672.124 35.86 672.443 35.178 672.795 34.386C673.147 33.594 673.488 32.747 673.818 31.845C674.148 30.943 674.434 30.03 674.676 29.106L679.56 31.35C679.098 32.538 678.526 33.759 677.844 35.013C677.184 36.267 676.469 37.477 675.699 38.643C674.951 39.787 674.192 40.821 673.422 41.745V41.877C673.422 41.877 673.29 41.965 673.026 42.141C672.762 42.295 672.454 42.504 672.102 42.768C671.772 43.032 671.475 43.307 671.211 43.593C670.947 43.857 670.815 44.088 670.815 44.286ZM670.815 44.286L670.683 40.854L672.597 39.567L677.778 39.237C677.646 39.853 677.525 40.546 677.415 41.316C677.327 42.086 677.272 42.724 677.25 43.23C676.106 43.34 675.16 43.439 674.412 43.527C673.664 43.615 673.059 43.703 672.597 43.791C672.135 43.857 671.761 43.934 671.475 44.022C671.211 44.11 670.991 44.198 670.815 44.286ZM669.792 55.209C670.738 54.901 671.827 54.527 673.059 54.087C674.313 53.647 675.633 53.163 677.019 52.635C678.427 52.085 679.824 51.546 681.21 51.018L682.134 55.044C680.264 55.924 678.339 56.793 676.359 57.651C674.401 58.487 672.586 59.257 670.914 59.961L669.792 55.209Z" fill="#F8FCFF"/>
<path d="M68.2016 37.323H77.4416V41.712H68.2016V37.323ZM70.7756 30.03H75.1646V52.173H70.7756V30.03ZM67.5746 52.371C68.8066 52.019 70.2916 51.546 72.0296 50.952C73.7896 50.336 75.5606 49.72 77.3426 49.104L78.2336 53.328C76.6936 54.01 75.1206 54.681 73.5146 55.341C71.9306 55.979 70.4456 56.573 69.0596 57.123L67.5746 52.371ZM80.2136 33.858H98.6606V38.181H80.2136V33.858ZM80.8736 41.25H85.9556V45.078H80.8736V41.25ZM78.2006 33.858H82.5896V45.276C82.5896 46.508 82.5346 47.839 82.4246 49.269C82.3146 50.677 82.1056 52.096 81.7976 53.526C81.5116 54.956 81.0826 56.32 80.5106 57.618C79.9386 58.894 79.1906 60.027 78.2666 61.017C78.0466 60.731 77.7166 60.39 77.2766 59.994C76.8586 59.62 76.4186 59.246 75.9566 58.872C75.4946 58.52 75.0986 58.256 74.7686 58.08C75.8246 56.914 76.5946 55.605 77.0786 54.153C77.5626 52.701 77.8706 51.205 78.0026 49.665C78.1346 48.103 78.2006 46.629 78.2006 45.243V33.858ZM84.3056 41.25H88.1996C88.1996 41.25 88.1996 41.437 88.1996 41.811C88.1996 42.185 88.1886 42.493 88.1666 42.735C88.1446 45.155 88.1006 47.146 88.0346 48.708C87.9906 50.27 87.9026 51.48 87.7706 52.338C87.6606 53.196 87.4846 53.79 87.2426 54.12C86.9566 54.516 86.6596 54.813 86.3516 55.011C86.0656 55.187 85.7246 55.319 85.3286 55.407C84.9986 55.495 84.5916 55.55 84.1076 55.572C83.6456 55.594 83.1396 55.605 82.5896 55.605C82.5456 54.989 82.4356 54.318 82.2596 53.592C82.0836 52.844 81.8636 52.217 81.5996 51.711C81.9296 51.755 82.2156 51.788 82.4576 51.81C82.6996 51.81 82.8976 51.81 83.0516 51.81C83.3816 51.81 83.6456 51.667 83.8436 51.381C83.9536 51.205 84.0306 50.798 84.0746 50.16C84.1406 49.522 84.1846 48.543 84.2066 47.223C84.2506 45.903 84.2836 44.132 84.3056 41.91V41.25ZM88.1336 29.502H92.6216C92.5776 31.526 92.5776 33.583 92.6216 35.673C92.6656 37.763 92.7536 39.809 92.8856 41.811C93.0176 43.791 93.1716 45.639 93.3476 47.355C93.5456 49.071 93.7546 50.589 93.9746 51.909C94.2166 53.207 94.4696 54.23 94.7336 54.978C94.9976 55.704 95.2616 56.067 95.5256 56.067C95.7016 56.067 95.8556 55.682 95.9876 54.912C96.1196 54.142 96.1966 52.965 96.2186 51.381C96.6586 51.887 97.1866 52.382 97.8026 52.866C98.4186 53.328 98.9906 53.68 99.5186 53.922C99.3426 55.66 99.0676 57.002 98.6936 57.948C98.3416 58.916 97.8576 59.576 97.2416 59.928C96.6476 60.302 95.8776 60.489 94.9316 60.489C93.9636 60.489 93.1166 60.049 92.3906 59.169C91.6866 58.311 91.0816 57.123 90.5756 55.605C90.0916 54.065 89.6846 52.294 89.3546 50.292C89.0466 48.268 88.8046 46.101 88.6286 43.791C88.4526 41.459 88.3316 39.083 88.2656 36.663C88.1996 34.221 88.1556 31.834 88.1336 29.502ZM92.3246 31.053L95.6246 29.205C96.1746 29.799 96.7136 30.47 97.2416 31.218C97.7916 31.944 98.1876 32.593 98.4296 33.165L94.8986 35.178C94.7006 34.606 94.3486 33.935 93.8426 33.165C93.3366 32.373 92.8306 31.669 92.3246 31.053ZM94.5686 41.25L98.8586 42.009C97.8686 46.321 96.4056 50.083 94.4696 53.295C92.5556 56.507 90.1246 59.092 87.1766 61.05C86.9566 60.764 86.6486 60.412 86.2526 59.994C85.8566 59.598 85.4386 59.202 84.9986 58.806C84.5806 58.41 84.2066 58.091 83.8766 57.849C86.7586 56.221 89.0686 53.999 90.8066 51.183C92.5446 48.345 93.7986 45.034 94.5686 41.25ZM108.891 30.657H115.59V34.98H108.891V30.657ZM109.122 38.082H115.095V42.405H109.122V38.082ZM109.122 45.639H115.095V50.061H109.122V45.639ZM106.845 30.657H111.003V42.801C111.003 44.143 110.97 45.606 110.904 47.19C110.86 48.774 110.761 50.402 110.607 52.074C110.453 53.724 110.222 55.319 109.914 56.859C109.606 58.399 109.199 59.785 108.693 61.017C108.429 60.775 108.066 60.511 107.604 60.225C107.142 59.961 106.669 59.708 106.185 59.466C105.701 59.224 105.283 59.037 104.931 58.905C105.393 57.783 105.745 56.551 105.987 55.209C106.251 53.845 106.438 52.448 106.548 51.018C106.68 49.566 106.757 48.147 106.779 46.761C106.823 45.353 106.845 44.044 106.845 42.834V30.657ZM113.082 30.657H117.405V55.869C117.405 56.837 117.317 57.651 117.141 58.311C116.965 58.993 116.602 59.521 116.052 59.895C115.502 60.269 114.875 60.511 114.171 60.621C113.467 60.731 112.631 60.786 111.663 60.786C111.641 60.368 111.575 59.884 111.465 59.334C111.355 58.784 111.212 58.234 111.036 57.684C110.882 57.134 110.706 56.661 110.508 56.265C110.926 56.287 111.344 56.298 111.762 56.298C112.18 56.298 112.477 56.298 112.653 56.298C112.829 56.298 112.939 56.265 112.983 56.199C113.049 56.111 113.082 55.979 113.082 55.803V30.657ZM125.226 35.343H129.747V55.803C129.747 56.881 129.626 57.75 129.384 58.41C129.164 59.092 128.735 59.62 128.097 59.994C127.437 60.368 126.667 60.599 125.787 60.687C124.929 60.797 123.895 60.852 122.685 60.852C122.619 60.214 122.454 59.433 122.19 58.509C121.948 57.607 121.673 56.848 121.365 56.232C122.003 56.254 122.641 56.276 123.279 56.298C123.939 56.298 124.379 56.298 124.599 56.298C125.017 56.276 125.226 56.078 125.226 55.704V35.343ZM121.002 33.495L122.751 29.766C123.543 29.898 124.412 30.063 125.358 30.261C126.326 30.437 127.305 30.646 128.295 30.888C129.307 31.108 130.253 31.339 131.133 31.581C132.035 31.801 132.805 32.01 133.443 32.208L131.661 36.399C131.067 36.179 130.33 35.948 129.45 35.706C128.592 35.442 127.668 35.178 126.678 34.914C125.688 34.628 124.698 34.364 123.708 34.122C122.74 33.88 121.838 33.671 121.002 33.495ZM129.483 39.996C129.813 41.404 130.22 42.79 130.704 44.154C131.188 45.496 131.749 46.783 132.387 48.015C133.047 49.247 133.773 50.38 134.565 51.414C135.379 52.426 136.259 53.306 137.205 54.054C136.853 54.34 136.457 54.703 136.017 55.143C135.599 55.583 135.192 56.056 134.796 56.562C134.422 57.046 134.103 57.497 133.839 57.915C132.541 56.661 131.408 55.132 130.44 53.328C129.494 51.524 128.691 49.544 128.031 47.388C127.371 45.232 126.81 42.999 126.348 40.689L129.483 39.996ZM120.804 41.58H121.596L122.355 41.481L125.127 42.174C124.819 45.606 124.214 48.675 123.312 51.381C122.432 54.087 121.112 56.254 119.352 57.882C119.176 57.508 118.923 57.09 118.593 56.628C118.263 56.144 117.911 55.671 117.537 55.209C117.163 54.747 116.811 54.373 116.481 54.087C117.339 53.317 118.065 52.305 118.659 51.051C119.253 49.797 119.726 48.411 120.078 46.893C120.452 45.353 120.694 43.813 120.804 42.273V41.58ZM132.75 37.95L137.04 41.118C136.292 41.734 135.577 42.372 134.895 43.032C134.213 43.67 133.553 44.275 132.915 44.847C132.299 45.419 131.716 45.925 131.166 46.365L128.295 43.956C128.801 43.428 129.329 42.823 129.879 42.141C130.429 41.459 130.957 40.755 131.463 40.029C131.969 39.281 132.398 38.588 132.75 37.95ZM119.583 35.343H127.041V39.897H119.583V35.343ZM117.966 41.58H122.289V45.969H117.966V41.58ZM151.494 42.306V54.747H146.907V46.728H143.013V42.306H151.494ZM151.494 52.866C152.066 53.9 152.858 54.648 153.87 55.11C154.882 55.572 156.158 55.836 157.698 55.902C158.732 55.946 159.964 55.979 161.394 56.001C162.824 56.001 164.32 55.99 165.882 55.968C167.466 55.946 169.017 55.902 170.535 55.836C172.075 55.77 173.461 55.682 174.693 55.572C174.517 55.924 174.33 56.386 174.132 56.958C173.934 57.508 173.747 58.069 173.571 58.641C173.417 59.235 173.296 59.763 173.208 60.225C172.13 60.291 170.909 60.335 169.545 60.357C168.203 60.401 166.817 60.423 165.387 60.423C163.957 60.445 162.571 60.445 161.229 60.423C159.887 60.401 158.688 60.368 157.632 60.324C155.762 60.236 154.178 59.939 152.88 59.433C151.582 58.927 150.449 58.047 149.481 56.793C148.777 57.409 148.04 58.014 147.27 58.608C146.522 59.224 145.686 59.884 144.762 60.588L142.584 55.803C143.332 55.385 144.124 54.934 144.96 54.45C145.796 53.944 146.588 53.416 147.336 52.866H151.494ZM143.442 33.297L146.742 30.195C147.424 30.635 148.139 31.152 148.887 31.746C149.635 32.318 150.339 32.901 150.999 33.495C151.681 34.089 152.22 34.65 152.616 35.178L149.052 38.643C148.7 38.115 148.205 37.543 147.567 36.927C146.951 36.289 146.28 35.651 145.554 35.013C144.828 34.375 144.124 33.803 143.442 33.297ZM156.873 36.432L159.942 33.924C160.888 34.254 161.933 34.65 163.077 35.112C164.243 35.574 165.365 36.058 166.443 36.564C167.521 37.048 168.434 37.499 169.182 37.917L165.882 40.722C165.244 40.304 164.397 39.842 163.341 39.336C162.307 38.83 161.218 38.324 160.074 37.818C158.93 37.29 157.863 36.828 156.873 36.432ZM153.969 37.818H170.634V41.217H158.457V54.912H153.969V37.818ZM168.39 37.818H172.944V50.952C172.944 51.876 172.845 52.602 172.647 53.13C172.449 53.658 172.053 54.076 171.459 54.384C170.909 54.692 170.26 54.879 169.512 54.945C168.764 55.011 167.928 55.044 167.004 55.044C166.916 54.472 166.762 53.834 166.542 53.13C166.322 52.426 166.091 51.821 165.849 51.315C166.223 51.337 166.619 51.348 167.037 51.348C167.477 51.348 167.774 51.348 167.928 51.348C168.104 51.348 168.225 51.315 168.291 51.249C168.357 51.161 168.39 51.04 168.39 50.886V37.818ZM154.431 30.492H169.743V34.056H154.431V30.492ZM156.477 42.372H169.875V45.639H156.477V42.372ZM156.477 46.86H169.875V50.259H156.477V46.86ZM161.262 39.468H165.519V54.78H161.262V39.468ZM167.994 30.492H169.083L170.007 30.261L172.812 32.538C172.02 33.286 171.14 34.056 170.172 34.848C169.226 35.618 168.236 36.355 167.202 37.059C166.168 37.741 165.145 38.346 164.133 38.874C163.869 38.478 163.495 38.016 163.011 37.488C162.527 36.96 162.12 36.542 161.79 36.234C162.582 35.816 163.374 35.321 164.166 34.749C164.98 34.155 165.728 33.561 166.41 32.967C167.092 32.351 167.62 31.801 167.994 31.317V30.492ZM189.18 42.306V54.747H184.494V46.728H181.095V42.306H189.18ZM189.18 52.668C189.796 53.68 190.665 54.417 191.787 54.879C192.909 55.341 194.273 55.605 195.879 55.671C196.891 55.715 198.079 55.748 199.443 55.77C200.807 55.77 202.237 55.759 203.733 55.737C205.251 55.693 206.736 55.638 208.188 55.572C209.662 55.506 210.993 55.418 212.181 55.308C212.005 55.682 211.807 56.166 211.587 56.76C211.389 57.354 211.202 57.948 211.026 58.542C210.872 59.158 210.751 59.708 210.663 60.192C209.607 60.258 208.43 60.302 207.132 60.324C205.856 60.368 204.536 60.39 203.172 60.39C201.83 60.412 200.521 60.412 199.245 60.39C197.969 60.368 196.814 60.335 195.78 60.291C193.822 60.203 192.15 59.906 190.764 59.4C189.4 58.916 188.168 58.036 187.068 56.76C186.386 57.354 185.682 57.959 184.956 58.575C184.252 59.191 183.449 59.851 182.547 60.555L180.237 55.539C180.963 55.121 181.722 54.67 182.514 54.186C183.306 53.702 184.065 53.196 184.791 52.668H189.18ZM180.963 33.165L184.527 30.294C185.165 30.734 185.825 31.24 186.507 31.812C187.211 32.384 187.86 32.967 188.454 33.561C189.07 34.155 189.565 34.705 189.939 35.211L186.111 38.379C185.803 37.873 185.363 37.312 184.791 36.696C184.219 36.08 183.592 35.464 182.91 34.848C182.25 34.21 181.601 33.649 180.963 33.165ZM198.255 39.831H202.875V50.853C202.875 51.843 202.765 52.624 202.545 53.196C202.347 53.746 201.929 54.175 201.291 54.483C200.653 54.791 199.927 54.978 199.113 55.044C198.321 55.11 197.408 55.143 196.374 55.143C196.308 54.549 196.154 53.878 195.912 53.13C195.67 52.382 195.428 51.722 195.186 51.15C195.648 51.172 196.143 51.194 196.671 51.216C197.199 51.216 197.551 51.216 197.727 51.216C198.079 51.216 198.255 51.062 198.255 50.754V39.831ZM193.008 46.53L197.133 47.52C196.649 48.774 196.022 49.984 195.252 51.15C194.482 52.294 193.679 53.251 192.843 54.021C192.579 53.779 192.227 53.515 191.787 53.229C191.369 52.921 190.929 52.635 190.467 52.371C190.027 52.085 189.642 51.854 189.312 51.678C190.148 51.04 190.885 50.27 191.523 49.368C192.161 48.444 192.656 47.498 193.008 46.53ZM203.304 48.081L207.099 46.365C207.561 46.937 208.034 47.564 208.518 48.246C209.024 48.928 209.497 49.599 209.937 50.259C210.377 50.919 210.729 51.524 210.993 52.074L206.967 54.021C206.747 53.493 206.428 52.888 206.01 52.206C205.614 51.502 205.174 50.798 204.69 50.094C204.228 49.368 203.766 48.697 203.304 48.081ZM194.394 37.257H206.736V41.085H194.394V37.257ZM190.599 42.207H210.828V46.101H190.599V42.207ZM200.334 33.693C199.674 34.507 198.86 35.343 197.892 36.201C196.924 37.037 195.868 37.829 194.724 38.577C193.58 39.303 192.414 39.919 191.226 40.425C190.984 39.809 190.621 39.094 190.137 38.28C189.675 37.444 189.224 36.762 188.784 36.234C189.994 35.772 191.171 35.178 192.315 34.452C193.481 33.726 194.537 32.934 195.483 32.076C196.451 31.196 197.232 30.349 197.826 29.535H202.512C203.37 30.503 204.305 31.405 205.317 32.241C206.351 33.077 207.44 33.814 208.584 34.452C209.728 35.068 210.905 35.563 212.115 35.937C211.631 36.553 211.136 37.279 210.63 38.115C210.146 38.929 209.728 39.688 209.376 40.392C208.32 39.908 207.22 39.303 206.076 38.577C204.932 37.851 203.854 37.059 202.842 36.201C201.852 35.343 201.016 34.507 200.334 33.693ZM233.862 41.25C232.872 41.25 232.036 40.92 231.354 40.26C230.694 39.578 230.364 38.764 230.364 37.818C230.364 36.828 230.694 36.003 231.354 35.343C232.036 34.661 232.872 34.32 233.862 34.32C234.852 34.32 235.677 34.661 236.337 35.343C237.019 36.003 237.36 36.828 237.36 37.818C237.36 38.764 237.019 39.578 236.337 40.26C235.677 40.92 234.852 41.25 233.862 41.25ZM233.862 56.76C232.872 56.76 232.036 56.43 231.354 55.77C230.694 55.088 230.364 54.274 230.364 53.328C230.364 52.338 230.694 51.513 231.354 50.853C232.036 50.171 232.872 49.83 233.862 49.83C234.852 49.83 235.677 50.171 236.337 50.853C237.019 51.513 237.36 52.338 237.36 53.328C237.36 54.274 237.019 55.088 236.337 55.77C235.677 56.43 234.852 56.76 233.862 56.76ZM257.127 34.122H285.969V38.742H257.127V34.122ZM256.335 50.853H286.662V55.539H256.335V50.853ZM270.987 39.501H276.168V60.885H270.987V39.501ZM260.361 48.51C260.273 48.18 260.13 47.718 259.932 47.124C259.734 46.53 259.514 45.914 259.272 45.276C259.03 44.616 258.799 44.055 258.579 43.593C259.085 43.417 259.525 43.142 259.899 42.768C260.295 42.372 260.735 41.822 261.219 41.118C261.483 40.788 261.835 40.227 262.275 39.435C262.737 38.621 263.232 37.664 263.76 36.564C264.31 35.464 264.838 34.276 265.344 33C265.872 31.724 266.334 30.437 266.73 29.139L272.406 30.558C271.636 32.472 270.756 34.353 269.766 36.201C268.776 38.049 267.753 39.787 266.697 41.415C265.641 43.021 264.618 44.462 263.628 45.738V45.87C263.628 45.87 263.463 45.969 263.133 46.167C262.803 46.343 262.418 46.574 261.978 46.86C261.56 47.146 261.186 47.443 260.856 47.751C260.526 48.037 260.361 48.29 260.361 48.51ZM260.361 48.51V44.946L262.902 43.428H283.791V47.982H264.321C263.771 47.982 263.21 48.004 262.638 48.048C262.066 48.092 261.571 48.158 261.153 48.246C260.735 48.312 260.471 48.4 260.361 48.51ZM310.818 55.638H320.949V59.73H310.818V55.638ZM312.138 32.538H320.322V36.564H312.138V32.538ZM308.838 48.378H322.863V60.687H318.276V52.371H313.227V60.786H308.838V48.378ZM318.672 32.538H319.497L320.322 32.373L323.358 33.66C322.786 35.75 322.027 37.653 321.081 39.369C320.157 41.063 319.068 42.592 317.814 43.956C316.56 45.298 315.174 46.486 313.656 47.52C312.138 48.554 310.51 49.434 308.772 50.16C308.486 49.61 308.079 48.983 307.551 48.279C307.045 47.553 306.561 46.981 306.099 46.563C307.595 46.035 309.014 45.342 310.356 44.484C311.698 43.604 312.919 42.592 314.019 41.448C315.119 40.304 316.065 39.05 316.857 37.686C317.649 36.3 318.254 34.837 318.672 33.297V32.538ZM312.006 29.502L316.56 30.624C316.076 32.098 315.493 33.55 314.811 34.98C314.129 36.388 313.37 37.708 312.534 38.94C311.72 40.15 310.873 41.206 309.993 42.108C309.729 41.822 309.366 41.481 308.904 41.085C308.464 40.689 308.002 40.304 307.518 39.93C307.056 39.534 306.649 39.226 306.297 39.006C307.551 37.906 308.673 36.509 309.663 34.815C310.675 33.121 311.456 31.35 312.006 29.502ZM312.534 34.65C312.996 35.728 313.612 36.817 314.382 37.917C315.152 39.017 316.065 40.062 317.121 41.052C318.199 42.042 319.42 42.933 320.784 43.725C322.17 44.517 323.699 45.144 325.371 45.606C325.063 45.914 324.711 46.31 324.315 46.794C323.941 47.278 323.578 47.773 323.226 48.279C322.896 48.785 322.621 49.247 322.401 49.665C320.707 49.049 319.156 48.257 317.748 47.289C316.362 46.321 315.13 45.243 314.052 44.055C312.974 42.867 312.028 41.635 311.214 40.359C310.422 39.083 309.773 37.829 309.267 36.597L312.534 34.65ZM294.582 44.022H298.443V56.067H294.582V44.022ZM299.103 34.749V38.049H302.403V34.749H299.103ZM294.978 30.69H306.792V42.108H294.978V30.69ZM299.565 40.59H303.789V55.143H299.565V40.59ZM293.262 55.242C294.472 55.044 295.858 54.791 297.42 54.483C298.982 54.175 300.621 53.845 302.337 53.493C304.053 53.119 305.747 52.745 307.419 52.371L307.881 56.595C305.505 57.167 303.096 57.739 300.654 58.311C298.212 58.883 296.012 59.389 294.054 59.829L293.262 55.242ZM301.314 45.474H307.122V49.632H301.314V45.474ZM335.502 31.449H358.404V36.399H335.502V31.449ZM331.674 40.854H361.836V45.837H331.674V40.854ZM340.947 43.824L346.92 45.309C346.348 46.739 345.743 48.169 345.105 49.599C344.467 51.007 343.829 52.338 343.191 53.592C342.553 54.846 341.937 55.968 341.343 56.958L336.723 55.473C337.141 54.681 337.548 53.812 337.944 52.866C338.362 51.898 338.758 50.897 339.132 49.863C339.506 48.829 339.847 47.806 340.155 46.794C340.463 45.76 340.727 44.77 340.947 43.824ZM332.697 54.417C334.325 54.373 336.14 54.318 338.142 54.252C340.166 54.186 342.289 54.12 344.511 54.054C346.755 53.966 349.032 53.878 351.342 53.79C353.674 53.702 355.962 53.614 358.206 53.526L358.008 58.146C355.808 58.278 353.575 58.41 351.309 58.542C349.043 58.674 346.821 58.795 344.643 58.905C342.465 59.037 340.386 59.147 338.406 59.235C336.448 59.345 334.655 59.433 333.027 59.499L332.697 54.417ZM350.286 49.665L354.972 47.421C355.94 48.521 356.886 49.709 357.81 50.985C358.734 52.261 359.57 53.526 360.318 54.78C361.088 56.012 361.704 57.156 362.166 58.212L357.15 60.918C356.776 59.884 356.215 58.707 355.467 57.387C354.741 56.067 353.927 54.736 353.025 53.394C352.123 52.03 351.21 50.787 350.286 49.665ZM368.964 37.356H379.392V41.778H368.964V37.356ZM371.868 29.535H376.455V60.885H371.868V29.535ZM380.184 35.574H393.417V40.227H380.184V35.574ZM391.437 35.574H395.991C395.991 35.574 395.991 35.706 395.991 35.97C395.991 36.234 395.98 36.531 395.958 36.861C395.958 37.191 395.958 37.455 395.958 37.653C395.892 41.151 395.826 44.121 395.76 46.563C395.694 49.005 395.606 51.029 395.496 52.635C395.386 54.219 395.243 55.462 395.067 56.364C394.891 57.266 394.66 57.915 394.374 58.311C393.956 58.971 393.516 59.433 393.054 59.697C392.592 59.961 392.053 60.159 391.437 60.291C390.887 60.401 390.216 60.467 389.424 60.489C388.632 60.511 387.818 60.511 386.982 60.489C386.96 59.829 386.817 59.059 386.553 58.179C386.289 57.299 385.959 56.54 385.563 55.902C386.311 55.968 386.993 56.012 387.609 56.034C388.247 56.034 388.742 56.034 389.094 56.034C389.358 56.034 389.578 55.99 389.754 55.902C389.952 55.814 390.128 55.66 390.282 55.44C390.48 55.198 390.634 54.681 390.744 53.889C390.876 53.097 390.986 51.964 391.074 50.49C391.162 48.994 391.228 47.113 391.272 44.847C391.338 42.559 391.393 39.798 391.437 36.564V35.574ZM379.293 41.976L383.484 42.801C383.154 44.495 382.692 46.145 382.098 47.751C381.504 49.335 380.833 50.666 380.085 51.744C379.821 51.524 379.469 51.271 379.029 50.985C378.589 50.677 378.138 50.391 377.676 50.127C377.214 49.841 376.818 49.61 376.488 49.434C377.192 48.532 377.775 47.421 378.237 46.101C378.721 44.759 379.073 43.384 379.293 41.976ZM394.506 42.768L398.301 41.943C398.609 42.999 398.917 44.132 399.225 45.342C399.555 46.552 399.852 47.729 400.116 48.873C400.38 49.995 400.578 50.974 400.71 51.81L396.618 52.866C396.508 52.008 396.343 51.007 396.123 49.863C395.903 48.697 395.65 47.498 395.364 46.266C395.078 45.012 394.792 43.846 394.506 42.768ZM384.672 29.634H389.193V37.356C389.193 39.16 389.105 41.096 388.929 43.164C388.753 45.21 388.379 47.289 387.807 49.401C387.257 51.491 386.41 53.526 385.266 55.506C384.122 57.464 382.571 59.268 380.613 60.918C380.349 60.566 379.997 60.17 379.557 59.73C379.139 59.312 378.699 58.905 378.237 58.509C377.775 58.113 377.357 57.805 376.983 57.585C378.743 56.177 380.129 54.626 381.141 52.932C382.175 51.238 382.945 49.489 383.451 47.685C383.957 45.859 384.287 44.066 384.441 42.306C384.595 40.524 384.672 38.863 384.672 37.323V29.634ZM413.712 37.257H430.08V41.25H413.712V37.257ZM415.197 43.23H419.586V56.76H415.197V43.23ZM417.606 43.23H428.793V54.681H417.606V50.754H424.371V47.124H417.606V43.23ZM407.706 31.02H434.139V35.541H412.359V60.885H407.706V31.02ZM431.565 31.02H436.284V55.572C436.284 56.738 436.152 57.673 435.888 58.377C435.624 59.081 435.14 59.62 434.436 59.994C433.732 60.39 432.885 60.643 431.895 60.753C430.905 60.863 429.728 60.918 428.364 60.918C428.32 60.478 428.21 59.961 428.034 59.367C427.88 58.795 427.693 58.223 427.473 57.651C427.253 57.079 427.022 56.584 426.78 56.166C427.55 56.21 428.342 56.243 429.156 56.265C429.97 56.265 430.52 56.265 430.806 56.265C431.092 56.243 431.29 56.177 431.4 56.067C431.51 55.957 431.565 55.77 431.565 55.506V31.02ZM453.312 56.694H468.624V60.159H453.312V56.694ZM457.14 36.597H461.76V40.755H457.14V36.597ZM445.161 38.709H474.333V45.507H469.647V42.24H449.649V45.507H445.161V38.709ZM453.18 43.263H468.888V51.084H453.18V47.718H464.103V46.629H453.18V43.263ZM453.378 52.14H471.627V60.951H466.842V55.572H453.378V52.14ZM450.507 43.263H455.061V60.951H450.507V43.263ZM448.824 31.713H459.087V35.442H448.824V31.713ZM462.486 31.713H474.993V35.442H462.486V31.713ZM448.692 29.205L453.147 30.426C452.487 31.922 451.651 33.385 450.639 34.815C449.627 36.245 448.626 37.444 447.636 38.412C447.328 38.148 446.932 37.862 446.448 37.554C445.986 37.224 445.513 36.905 445.029 36.597C444.545 36.267 444.116 36.014 443.742 35.838C444.754 35.046 445.7 34.056 446.58 32.868C447.482 31.658 448.186 30.437 448.692 29.205ZM462.387 29.205L466.941 30.327C466.347 31.735 465.577 33.099 464.631 34.419C463.707 35.717 462.761 36.795 461.793 37.653C461.463 37.411 461.045 37.147 460.539 36.861C460.033 36.575 459.516 36.3 458.988 36.036C458.46 35.772 457.998 35.563 457.602 35.409C458.636 34.683 459.571 33.759 460.407 32.637C461.265 31.515 461.925 30.371 462.387 29.205ZM449.715 34.617L453.774 33.528C454.192 34.078 454.61 34.716 455.028 35.442C455.468 36.146 455.798 36.762 456.018 37.29L451.728 38.511C451.574 38.005 451.299 37.378 450.903 36.63C450.507 35.882 450.111 35.211 449.715 34.617ZM464.862 34.749L469.086 33.66C469.548 34.21 470.021 34.837 470.505 35.541C471.011 36.223 471.396 36.828 471.66 37.356L467.205 38.544C467.007 38.038 466.677 37.422 466.215 36.696C465.753 35.97 465.302 35.321 464.862 34.749ZM493.473 46.794H511.029V51.084H493.473V46.794ZM491.658 55.638H512.778V59.961H491.658V55.638ZM491.889 32.043H512.58V38.709H508.224V35.97H496.014V38.709H491.889V32.043ZM499.941 29.502H504.594V34.716H499.941V29.502ZM499.776 49.17H504.495V57.651H499.776V49.17ZM502.647 35.706H507.036V40.788C507.036 41.228 507.069 41.503 507.135 41.613C507.201 41.701 507.344 41.745 507.564 41.745C507.63 41.745 507.729 41.745 507.861 41.745C507.993 41.745 508.125 41.745 508.257 41.745C508.389 41.745 508.488 41.745 508.554 41.745C508.73 41.745 508.862 41.69 508.95 41.58C509.038 41.47 509.104 41.239 509.148 40.887C509.214 40.535 509.258 40.018 509.28 39.336C509.676 39.644 510.248 39.952 510.996 40.26C511.766 40.546 512.437 40.755 513.009 40.887C512.789 42.691 512.382 43.923 511.788 44.583C511.216 45.221 510.314 45.54 509.082 45.54C508.906 45.54 508.719 45.54 508.521 45.54C508.323 45.54 508.114 45.54 507.894 45.54C507.696 45.54 507.498 45.54 507.3 45.54C507.124 45.54 506.948 45.54 506.772 45.54C505.628 45.54 504.759 45.397 504.165 45.111C503.571 44.803 503.164 44.308 502.944 43.626C502.746 42.922 502.647 41.987 502.647 40.821V35.706ZM497.136 35.838H501.426C501.382 37.224 501.261 38.478 501.063 39.6C500.887 40.722 500.546 41.712 500.04 42.57C499.534 43.406 498.786 44.132 497.796 44.748C496.806 45.364 495.486 45.87 493.836 46.266C493.682 45.76 493.374 45.166 492.912 44.484C492.472 43.802 492.043 43.252 491.625 42.834C492.901 42.57 493.902 42.251 494.628 41.877C495.354 41.481 495.893 41.008 496.245 40.458C496.597 39.908 496.828 39.259 496.938 38.511C497.048 37.741 497.114 36.85 497.136 35.838ZM481.263 45.837C482.583 45.463 484.156 44.979 485.982 44.385C487.83 43.791 489.689 43.175 491.559 42.537L492.384 46.761C490.712 47.377 488.996 48.004 487.236 48.642C485.498 49.28 483.881 49.863 482.385 50.391L481.263 45.837ZM481.824 35.574H491.658V39.963H481.824V35.574ZM484.926 29.568H489.315V55.968C489.315 57.002 489.216 57.838 489.018 58.476C488.82 59.114 488.435 59.62 487.863 59.994C487.313 60.368 486.642 60.61 485.85 60.72C485.08 60.852 484.145 60.918 483.045 60.918C483.001 60.324 482.858 59.587 482.616 58.707C482.396 57.849 482.143 57.101 481.857 56.463C482.385 56.485 482.891 56.507 483.375 56.529C483.859 56.529 484.2 56.518 484.398 56.496C484.596 56.496 484.728 56.463 484.794 56.397C484.882 56.331 484.926 56.188 484.926 55.968V29.568ZM527.496 40.854H541.191V45.276H527.496V40.854ZM528.816 33.429H546.207V38.016H528.816V33.429ZM519.774 48.048H549.936V52.635H519.774V48.048ZM539.541 40.854H544.491C544.491 40.854 544.48 40.986 544.458 41.25C544.458 41.492 544.447 41.778 544.425 42.108C544.403 42.416 544.381 42.68 544.359 42.9C544.117 46.266 543.853 49.038 543.567 51.216C543.303 53.372 542.995 55.055 542.643 56.265C542.291 57.475 541.873 58.355 541.389 58.905C540.839 59.543 540.267 59.983 539.673 60.225C539.079 60.467 538.375 60.643 537.561 60.753C536.923 60.841 536.109 60.885 535.119 60.885C534.151 60.885 533.15 60.874 532.116 60.852C532.072 60.148 531.885 59.334 531.555 58.41C531.247 57.508 530.862 56.716 530.4 56.034C531.456 56.122 532.457 56.177 533.403 56.199C534.371 56.221 535.097 56.232 535.581 56.232C535.933 56.232 536.23 56.21 536.472 56.166C536.714 56.1 536.956 55.968 537.198 55.77C537.55 55.462 537.869 54.769 538.155 53.691C538.441 52.591 538.694 51.051 538.914 49.071C539.156 47.091 539.365 44.616 539.541 41.646V40.854ZM526.869 29.502L531.885 29.964C531.665 31.372 531.423 32.824 531.159 34.32C530.917 35.816 530.653 37.301 530.367 38.775C530.103 40.227 529.839 41.624 529.575 42.966C529.311 44.286 529.058 45.474 528.816 46.53L523.734 46.134C524.02 45.056 524.306 43.846 524.592 42.504C524.878 41.14 525.164 39.721 525.45 38.247C525.736 36.751 526 35.266 526.242 33.792C526.484 32.296 526.693 30.866 526.869 29.502ZM575.346 29.535H580.164V37.554H575.346V29.535ZM567.294 34.815H587.952V39.402H567.294V34.815ZM574.455 42.933H583.695V47.256H573.729L574.455 42.933ZM581.946 42.933H586.632C586.632 42.933 586.621 43.054 586.599 43.296C586.599 43.516 586.588 43.78 586.566 44.088C586.566 44.374 586.555 44.616 586.533 44.814C586.423 47.08 586.302 49.038 586.17 50.688C586.06 52.316 585.928 53.691 585.774 54.813C585.62 55.913 585.433 56.804 585.213 57.486C585.015 58.168 584.784 58.674 584.52 59.004C584.102 59.554 583.662 59.939 583.2 60.159C582.738 60.379 582.199 60.544 581.583 60.654C581.099 60.742 580.472 60.797 579.702 60.819C578.954 60.841 578.162 60.841 577.326 60.819C577.304 60.115 577.161 59.323 576.897 58.443C576.633 57.563 576.303 56.815 575.907 56.199C576.611 56.265 577.26 56.309 577.854 56.331C578.448 56.331 578.921 56.331 579.273 56.331C579.537 56.331 579.757 56.309 579.933 56.265C580.131 56.199 580.318 56.067 580.494 55.869C580.736 55.605 580.945 55.044 581.121 54.186C581.297 53.306 581.451 52.019 581.583 50.325C581.715 48.609 581.836 46.398 581.946 43.692V42.933ZM572.607 38.742H577.722C577.634 40.722 577.469 42.724 577.227 44.748C577.007 46.772 576.611 48.763 576.039 50.721C575.489 52.657 574.664 54.505 573.564 56.265C572.486 58.003 571.045 59.565 569.241 60.951C568.889 60.335 568.383 59.675 567.723 58.971C567.085 58.267 566.447 57.695 565.809 57.255C567.085 56.331 568.13 55.308 568.944 54.186C569.78 53.064 570.429 51.876 570.891 50.622C571.375 49.346 571.727 48.048 571.947 46.728C572.167 45.386 572.321 44.044 572.409 42.702C572.497 41.338 572.563 40.018 572.607 38.742ZM561.09 39.633L565.776 34.947L565.842 35.013V60.819H561.09V39.633ZM564.192 29.7L568.977 31.251C568.207 33.187 567.283 35.145 566.205 37.125C565.149 39.083 563.994 40.931 562.74 42.669C561.508 44.407 560.232 45.925 558.912 47.223C558.758 46.805 558.516 46.277 558.186 45.639C557.856 44.979 557.504 44.319 557.13 43.659C556.756 42.999 556.426 42.471 556.14 42.075C557.218 41.085 558.252 39.93 559.242 38.61C560.254 37.29 561.178 35.871 562.014 34.353C562.872 32.835 563.598 31.284 564.192 29.7ZM611.943 57.123L615.078 54.087C616.266 54.461 617.498 54.879 618.774 55.341C620.05 55.781 621.271 56.21 622.437 56.628C623.603 57.046 624.593 57.42 625.407 57.75L621.282 60.918C620.578 60.566 619.72 60.17 618.708 59.73C617.696 59.312 616.607 58.872 615.441 58.41C614.275 57.948 613.109 57.519 611.943 57.123ZM595.311 51.018H624.879V54.912H595.311V51.018ZM596.301 31.68H624.252V35.64H596.301V31.68ZM607.455 29.502H612.537V37.983H607.455V29.502ZM604.683 42.867V43.857H615.738V42.867H604.683ZM604.683 46.398V47.421H615.738V46.398H604.683ZM604.683 39.303V40.293H615.738V39.303H604.683ZM600.063 36.597H620.622V50.127H600.063V36.597ZM604.353 54.351L608.247 57.156C607.389 57.662 606.388 58.157 605.244 58.641C604.122 59.125 602.956 59.565 601.746 59.961C600.536 60.379 599.381 60.709 598.281 60.951C597.885 60.489 597.368 59.939 596.73 59.301C596.114 58.663 595.542 58.124 595.014 57.684C596.136 57.464 597.28 57.178 598.446 56.826C599.634 56.452 600.745 56.045 601.779 55.605C602.835 55.165 603.693 54.747 604.353 54.351ZM638.871 51.909L643.887 53.79C643.205 54.604 642.413 55.44 641.511 56.298C640.631 57.134 639.718 57.926 638.772 58.674C637.826 59.422 636.935 60.06 636.099 60.588C635.769 60.258 635.34 59.884 634.812 59.466C634.284 59.048 633.745 58.63 633.195 58.212C632.645 57.816 632.161 57.497 631.743 57.255C632.623 56.837 633.503 56.342 634.383 55.77C635.285 55.176 636.121 54.549 636.891 53.889C637.683 53.229 638.343 52.569 638.871 51.909ZM651.18 54.45L655.239 51.711C656.075 52.217 656.977 52.8 657.945 53.46C658.935 54.12 659.87 54.791 660.75 55.473C661.63 56.155 662.356 56.793 662.928 57.387L658.539 60.489C658.055 59.895 657.395 59.235 656.559 58.509C655.745 57.805 654.854 57.101 653.886 56.397C652.94 55.671 652.038 55.022 651.18 54.45ZM634.944 40.557L638.277 37.455C639.157 37.961 640.092 38.544 641.082 39.204C642.094 39.864 643.062 40.546 643.986 41.25C644.91 41.932 645.658 42.581 646.23 43.197L642.633 46.695C642.127 46.079 641.434 45.408 640.554 44.682C639.696 43.956 638.772 43.23 637.782 42.504C636.792 41.778 635.846 41.129 634.944 40.557ZM652.038 44.616L655.998 42.108C656.856 42.834 657.769 43.659 658.737 44.583C659.727 45.485 660.651 46.398 661.509 47.322C662.389 48.224 663.093 49.06 663.621 49.83L659.298 52.701C658.836 51.953 658.198 51.106 657.384 50.16C656.57 49.214 655.69 48.257 654.744 47.289C653.82 46.299 652.918 45.408 652.038 44.616ZM645.009 49.005H650.157V60.885H645.009V49.005ZM632.502 46.728C634.218 46.706 636.143 46.673 638.277 46.629C640.411 46.585 642.655 46.541 645.009 46.497C647.385 46.453 649.794 46.409 652.236 46.365C654.7 46.299 657.12 46.233 659.496 46.167L659.265 50.523C656.163 50.677 653.017 50.82 649.827 50.952C646.659 51.062 643.623 51.172 640.719 51.282C637.837 51.37 635.252 51.447 632.964 51.513L632.502 46.728ZM651.939 35.508L656.625 38.016C655.503 39.116 654.326 40.216 653.094 41.316C651.862 42.416 650.597 43.483 649.299 44.517C648.023 45.551 646.758 46.519 645.504 47.421C644.25 48.323 643.062 49.137 641.94 49.863L638.145 47.388C639.289 46.64 640.477 45.804 641.709 44.88C642.963 43.934 644.206 42.933 645.438 41.877C646.67 40.821 647.836 39.754 648.936 38.676C650.058 37.576 651.059 36.52 651.939 35.508ZM643.689 33.198L648.441 35.475C647.737 36.289 647 37.092 646.23 37.884C645.46 38.676 644.701 39.424 643.953 40.128C643.205 40.81 642.501 41.415 641.841 41.943L637.914 39.798C638.552 39.226 639.223 38.577 639.927 37.851C640.653 37.103 641.346 36.322 642.006 35.508C642.666 34.694 643.227 33.924 643.689 33.198ZM657.483 29.733L660.849 33.792C658.935 34.188 656.9 34.529 654.744 34.815C652.588 35.101 650.366 35.343 648.078 35.541C645.79 35.717 643.513 35.849 641.247 35.937C638.981 36.025 636.77 36.069 634.614 36.069C634.57 35.453 634.427 34.727 634.185 33.891C633.965 33.033 633.734 32.329 633.492 31.779C635.626 31.735 637.782 31.669 639.96 31.581C642.16 31.471 644.305 31.339 646.395 31.185C648.507 31.009 650.498 30.8 652.368 30.558C654.26 30.316 655.965 30.041 657.483 29.733ZM692.727 39.765L696.39 37.917C696.984 38.687 697.578 39.523 698.172 40.425C698.788 41.327 699.349 42.218 699.855 43.098C700.383 43.978 700.779 44.781 701.043 45.507L697.017 47.619C696.797 46.915 696.456 46.112 695.994 45.21C695.532 44.286 695.015 43.351 694.443 42.405C693.871 41.459 693.299 40.579 692.727 39.765ZM681.705 33.594H700.515V37.851H681.705V33.594ZM690.945 46.497H695.664V55.176C695.664 55.726 695.686 56.078 695.73 56.232C695.774 56.364 695.873 56.43 696.027 56.43C696.071 56.43 696.126 56.43 696.192 56.43C696.258 56.43 696.313 56.43 696.357 56.43C696.423 56.43 696.478 56.43 696.522 56.43C696.676 56.43 696.786 56.309 696.852 56.067C696.94 55.803 697.006 55.308 697.05 54.582C697.094 53.834 697.127 52.734 697.149 51.282C697.611 51.678 698.249 52.052 699.063 52.404C699.877 52.734 700.581 52.987 701.175 53.163C701.065 55.033 700.856 56.496 700.548 57.552C700.262 58.608 699.833 59.345 699.261 59.763C698.711 60.203 697.963 60.423 697.017 60.423C696.863 60.423 696.698 60.423 696.522 60.423C696.368 60.423 696.203 60.423 696.027 60.423C695.851 60.423 695.686 60.423 695.532 60.423C695.378 60.423 695.224 60.423 695.07 60.423C693.948 60.423 693.09 60.247 692.496 59.895C691.902 59.565 691.495 59.015 691.275 58.245C691.055 57.497 690.945 56.485 690.945 55.209V46.497ZM684.708 46.53H689.427C689.361 48.202 689.229 49.775 689.031 51.249C688.855 52.701 688.525 54.054 688.041 55.308C687.557 56.54 686.864 57.651 685.962 58.641C685.06 59.631 683.85 60.5 682.332 61.248C682.156 60.83 681.903 60.368 681.573 59.862C681.243 59.356 680.88 58.861 680.484 58.377C680.11 57.915 679.747 57.541 679.395 57.255C680.605 56.705 681.551 56.078 682.233 55.374C682.937 54.648 683.454 53.845 683.784 52.965C684.136 52.085 684.367 51.106 684.477 50.028C684.587 48.95 684.664 47.784 684.708 46.53ZM682.167 47.289L682.002 43.824L684.213 42.438L696.39 41.382C696.412 41.976 696.467 42.647 696.555 43.395C696.665 44.143 696.764 44.748 696.852 45.21C694.542 45.452 692.584 45.672 690.978 45.87C689.394 46.046 688.085 46.2 687.051 46.332C686.017 46.464 685.181 46.585 684.543 46.695C683.927 46.783 683.443 46.882 683.091 46.992C682.739 47.08 682.431 47.179 682.167 47.289ZM687.678 30.459L692.232 29.37C692.496 29.92 692.771 30.547 693.057 31.251C693.343 31.955 693.563 32.549 693.717 33.033L688.899 34.32C688.789 33.814 688.613 33.198 688.371 32.472C688.151 31.746 687.92 31.075 687.678 30.459ZM682.167 47.289C682.101 46.893 681.98 46.409 681.804 45.837C681.65 45.243 681.485 44.66 681.309 44.088C681.133 43.494 680.968 43.032 680.814 42.702C681.21 42.614 681.639 42.482 682.101 42.306C682.585 42.13 683.025 41.866 683.421 41.514C683.641 41.316 683.971 40.953 684.411 40.425C684.851 39.897 685.324 39.303 685.83 38.643C686.358 37.983 686.864 37.334 687.348 36.696C687.832 36.036 688.228 35.486 688.536 35.046H694.113C693.607 35.728 693.046 36.498 692.43 37.356C691.814 38.192 691.176 39.05 690.516 39.93C689.878 40.788 689.24 41.602 688.602 42.372C687.986 43.142 687.425 43.813 686.919 44.385C686.919 44.385 686.754 44.451 686.424 44.583C686.116 44.693 685.72 44.858 685.236 45.078C684.774 45.276 684.301 45.507 683.817 45.771C683.355 46.013 682.959 46.266 682.629 46.53C682.321 46.794 682.167 47.047 682.167 47.289ZM671.046 52.404C670.98 52.096 670.859 51.678 670.683 51.15C670.507 50.6 670.309 50.039 670.089 49.467C669.891 48.895 669.693 48.411 669.495 48.015C669.979 47.905 670.419 47.685 670.815 47.355C671.211 47.003 671.662 46.53 672.168 45.936C672.432 45.65 672.806 45.177 673.29 44.517C673.796 43.857 674.335 43.076 674.907 42.174C675.501 41.25 676.095 40.26 676.689 39.204C677.305 38.148 677.855 37.07 678.339 35.97L682.464 38.577C681.386 40.623 680.099 42.647 678.603 44.649C677.107 46.651 675.6 48.433 674.082 49.995V50.127C674.082 50.127 673.928 50.204 673.62 50.358C673.312 50.512 672.96 50.71 672.564 50.952C672.168 51.194 671.816 51.447 671.508 51.711C671.2 51.975 671.046 52.206 671.046 52.404ZM671.046 52.404L670.65 48.444L672.564 47.025L681.276 45.243C681.21 45.903 681.177 46.651 681.177 47.487C681.177 48.301 681.21 48.961 681.276 49.467C679.34 49.929 677.756 50.314 676.524 50.622C675.292 50.93 674.313 51.194 673.587 51.414C672.883 51.612 672.344 51.788 671.97 51.942C671.596 52.096 671.288 52.25 671.046 52.404ZM670.815 44.286C670.727 43.956 670.584 43.505 670.386 42.933C670.21 42.361 670.001 41.767 669.759 41.151C669.539 40.513 669.33 39.974 669.132 39.534C669.506 39.424 669.847 39.215 670.155 38.907C670.463 38.577 670.793 38.159 671.145 37.653C671.321 37.411 671.552 37.004 671.838 36.432C672.124 35.86 672.443 35.178 672.795 34.386C673.147 33.594 673.488 32.747 673.818 31.845C674.148 30.943 674.434 30.03 674.676 29.106L679.56 31.35C679.098 32.538 678.526 33.759 677.844 35.013C677.184 36.267 676.469 37.477 675.699 38.643C674.951 39.787 674.192 40.821 673.422 41.745V41.877C673.422 41.877 673.29 41.965 673.026 42.141C672.762 42.295 672.454 42.504 672.102 42.768C671.772 43.032 671.475 43.307 671.211 43.593C670.947 43.857 670.815 44.088 670.815 44.286ZM670.815 44.286L670.683 40.854L672.597 39.567L677.778 39.237C677.646 39.853 677.525 40.546 677.415 41.316C677.327 42.086 677.272 42.724 677.25 43.23C676.106 43.34 675.16 43.439 674.412 43.527C673.664 43.615 673.059 43.703 672.597 43.791C672.135 43.857 671.761 43.934 671.475 44.022C671.211 44.11 670.991 44.198 670.815 44.286ZM669.792 55.209C670.738 54.901 671.827 54.527 673.059 54.087C674.313 53.647 675.633 53.163 677.019 52.635C678.427 52.085 679.824 51.546 681.21 51.018L682.134 55.044C680.264 55.924 678.339 56.793 676.359 57.651C674.401 58.487 672.586 59.257 670.914 59.961L669.792 55.209Z" fill="url(#paint10_linear_16_172)" fill-opacity="0.45"/>
</g>
<defs>
<filter id="filter0_d_16_172" x="0" y="17.0235" width="775" height="106.098" filterUnits="userSpaceOnUse" color-interpolation-filters="sRGB">
<feFlood flood-opacity="0" result="BackgroundImageFix"/>
<feColorMatrix in="SourceAlpha" type="matrix" values="0 0 0 0 0 0 0 0 0 0 0 0 0 0 0 0 0 0 127 0" result="hardAlpha"/>
<feOffset dy="6"/>
<feGaussianBlur stdDeviation="2.5"/>
<feComposite in2="hardAlpha" operator="out"/>
<feColorMatrix type="matrix" values="0 0 0 0 0.0117647 0 0 0 0 0.0784314 0 0 0 0 0.188235 0 0 0 0.3 0"/>
<feBlend mode="normal" in2="BackgroundImageFix" result="effect1_dropShadow_16_172"/>
<feBlend mode="normal" in="SourceGraphic" in2="effect1_dropShadow_16_172" result="shape"/>
</filter>
<filter id="filter1_f_16_172" x="625.669" y="-0.408501" width="171.758" height="210.821" filterUnits="userSpaceOnUse" color-interpolation-filters="sRGB">
<feFlood flood-opacity="0" result="BackgroundImageFix"/>
<feBlend mode="normal" in="SourceGraphic" in2="BackgroundImageFix" result="shape"/>
<feGaussianBlur stdDeviation="7" result="effect1_foregroundBlur_16_172"/>
</filter>
<filter id="filter2_f_16_172" x="625.669" y="-0.408501" width="171.758" height="210.821" filterUnits="userSpaceOnUse" color-interpolation-filters="sRGB">
<feFlood flood-opacity="0" result="BackgroundImageFix"/>
<feBlend mode="normal" in="SourceGraphic" in2="BackgroundImageFix" result="shape"/>
<feGaussianBlur stdDeviation="7" result="effect1_foregroundBlur_16_172"/>
</filter>
<filter id="filter3_f_16_172" x="368.155" y="43.3269" width="43" height="193.53" filterUnits="userSpaceOnUse" color-interpolation-filters="sRGB">
<feFlood flood-opacity="0" result="BackgroundImageFix"/>
<feBlend mode="normal" in="SourceGraphic" in2="BackgroundImageFix" result="shape"/>
<feGaussianBlur stdDeviation="7" result="effect1_foregroundBlur_16_172"/>
</filter>
<filter id="filter4_f_16_172" x="6.1261" y="12.8134" width="130.815" height="169.121" filterUnits="userSpaceOnUse" color-interpolation-filters="sRGB">
<feFlood flood-opacity="0" result="BackgroundImageFix"/>
<feBlend mode="normal" in="SourceGraphic" in2="BackgroundImageFix" result="shape"/>
<feGaussianBlur stdDeviation="7" result="effect1_foregroundBlur_16_172"/>
</filter>
<filter id="filter5_f_16_172" x="-23.8739" y="-66.7415" width="854.533" height="419.769" filterUnits="userSpaceOnUse" color-interpolation-filters="sRGB">
<feFlood flood-opacity="0" result="BackgroundImageFix"/>
<feBlend mode="normal" in="SourceGraphic" in2="BackgroundImageFix" result="shape"/>
<feGaussianBlur stdDeviation="22" result="effect1_foregroundBlur_16_172"/>
</filter>
<filter id="filter6_f_16_172" x="628.901" y="6.71112" width="171.758" height="210.821" filterUnits="userSpaceOnUse" color-interpolation-filters="sRGB">
<feFlood flood-opacity="0" result="BackgroundImageFix"/>
<feBlend mode="normal" in="SourceGraphic" in2="BackgroundImageFix" result="shape"/>
<feGaussianBlur stdDeviation="7" result="effect1_foregroundBlur_16_172"/>
</filter>
<filter id="filter7_f_16_172" x="628.901" y="6.71112" width="171.758" height="210.821" filterUnits="userSpaceOnUse" color-interpolation-filters="sRGB">
<feFlood flood-opacity="0" result="BackgroundImageFix"/>
<feBlend mode="normal" in="SourceGraphic" in2="BackgroundImageFix" result="shape"/>
<feGaussianBlur stdDeviation="7" result="effect1_foregroundBlur_16_172"/>
</filter>
<filter id="filter8_f_16_172" x="628.901" y="6.71112" width="171.758" height="210.821" filterUnits="userSpaceOnUse" color-interpolation-filters="sRGB">
<feFlood flood-opacity="0" result="BackgroundImageFix"/>
<feBlend mode="normal" in="SourceGraphic" in2="BackgroundImageFix" result="shape"/>
<feGaussianBlur stdDeviation="7" result="effect1_foregroundBlur_16_172"/>
</filter>
<filter id="filter9_f_16_172" x="628.901" y="6.71112" width="171.758" height="210.821" filterUnits="userSpaceOnUse" color-interpolation-filters="sRGB">
<feFlood flood-opacity="0" result="BackgroundImageFix"/>
<feBlend mode="normal" in="SourceGraphic" in2="BackgroundImageFix" result="shape"/>
<feGaussianBlur stdDeviation="7" result="effect1_foregroundBlur_16_172"/>
</filter>
<filter id="filter10_f_16_172" x="628.901" y="6.71112" width="171.758" height="210.821" filterUnits="userSpaceOnUse" color-interpolation-filters="sRGB">
<feFlood flood-opacity="0" result="BackgroundImageFix"/>
<feBlend mode="normal" in="SourceGraphic" in2="BackgroundImageFix" result="shape"/>
<feGaussianBlur stdDeviation="7" result="effect1_foregroundBlur_16_172"/>
</filter>
<filter id="filter11_f_16_172" x="628.901" y="6.71112" width="171.758" height="210.821" filterUnits="userSpaceOnUse" color-interpolation-filters="sRGB">
<feFlood flood-opacity="0" result="BackgroundImageFix"/>
<feBlend mode="normal" in="SourceGraphic" in2="BackgroundImageFix" result="shape"/>
<feGaussianBlur stdDeviation="7" result="effect1_foregroundBlur_16_172"/>
</filter>
<filter id="filter12_f_16_172" x="369.232" y="19.9337" width="43" height="246.419" filterUnits="userSpaceOnUse" color-interpolation-filters="sRGB">
<feFlood flood-opacity="0" result="BackgroundImageFix"/>
<feBlend mode="normal" in="SourceGraphic" in2="BackgroundImageFix" result="shape"/>
<feGaussianBlur stdDeviation="7" result="effect1_foregroundBlur_16_172"/>
</filter>
<filter id="filter13_f_16_172" x="355.232" y="5.93372" width="71" height="274.419" filterUnits="userSpaceOnUse" color-interpolation-filters="sRGB">
<feFlood flood-opacity="0" result="BackgroundImageFix"/>
<feBlend mode="normal" in="SourceGraphic" in2="BackgroundImageFix" result="shape"/>
<feGaussianBlur stdDeviation="7" result="effect1_foregroundBlur_16_172"/>
</filter>
<filter id="filter14_f_16_172" x="293.232" y="-36.7415" width="195" height="359.769" filterUnits="userSpaceOnUse" color-interpolation-filters="sRGB">
<feFlood flood-opacity="0" result="BackgroundImageFix"/>
<feBlend mode="normal" in="SourceGraphic" in2="BackgroundImageFix" result="shape"/>
<feGaussianBlur stdDeviation="7" result="effect1_foregroundBlur_16_172"/>
</filter>
<filter id="filter15_f_16_172" x="6.1261" y="19.9331" width="130.815" height="169.121" filterUnits="userSpaceOnUse" color-interpolation-filters="sRGB">
<feFlood flood-opacity="0" result="BackgroundImageFix"/>
<feBlend mode="normal" in="SourceGraphic" in2="BackgroundImageFix" result="shape"/>
<feGaussianBlur stdDeviation="7" result="effect1_foregroundBlur_16_172"/>
</filter>
<filter id="filter16_f_16_172" x="6.1261" y="19.9331" width="130.815" height="169.121" filterUnits="userSpaceOnUse" color-interpolation-filters="sRGB">
<feFlood flood-opacity="0" result="BackgroundImageFix"/>
<feBlend mode="normal" in="SourceGraphic" in2="BackgroundImageFix" result="shape"/>
<feGaussianBlur stdDeviation="7" result="effect1_foregroundBlur_16_172"/>
</filter>
<filter id="filter17_f_16_172" x="6.1261" y="19.9331" width="130.815" height="169.121" filterUnits="userSpaceOnUse" color-interpolation-filters="sRGB">
<feFlood flood-opacity="0" result="BackgroundImageFix"/>
<feBlend mode="normal" in="SourceGraphic" in2="BackgroundImageFix" result="shape"/>
<feGaussianBlur stdDeviation="7" result="effect1_foregroundBlur_16_172"/>
</filter>
<filter id="filter18_f_16_172" x="373.894" y="-64.7052" width="326.818" height="353.362" filterUnits="userSpaceOnUse" color-interpolation-filters="sRGB">
<feFlood flood-opacity="0" result="BackgroundImageFix"/>
<feBlend mode="normal" in="SourceGraphic" in2="BackgroundImageFix" result="shape"/>
<feGaussianBlur stdDeviation="56.5" result="effect1_foregroundBlur_16_172"/>
</filter>
<filter id="filter19_f_16_172" x="50.6548" y="-65.7223" width="326.818" height="353.362" filterUnits="userSpaceOnUse" color-interpolation-filters="sRGB">
<feFlood flood-opacity="0" result="BackgroundImageFix"/>
<feBlend mode="normal" in="SourceGraphic" in2="BackgroundImageFix" result="shape"/>
<feGaussianBlur stdDeviation="56.5" result="effect1_foregroundBlur_16_172"/>
</filter>
<filter id="filter20_ii_16_172" x="1.76761" y="1.25854" width="775.775" height="104.761" filterUnits="userSpaceOnUse" color-interpolation-filters="sRGB">
<feFlood flood-opacity="0" result="BackgroundImageFix"/>
<feBlend mode="normal" in="SourceGraphic" in2="BackgroundImageFix" result="shape"/>
<feColorMatrix in="SourceAlpha" type="matrix" values="0 0 0 0 0 0 0 0 0 0 0 0 0 0 0 0 0 0 127 0" result="hardAlpha"/>
<feOffset/>
<feGaussianBlur stdDeviation="7"/>
<feComposite in2="hardAlpha" operator="arithmetic" k2="-1" k3="1"/>
<feColorMatrix type="matrix" values="0 0 0 0 0.275 0 0 0 0 0.478 0 0 0 0 1 0 0 0 1 0"/>
<feBlend mode="screen" in2="shape" result="effect1_innerShadow_16_172"/>
<feColorMatrix in="SourceAlpha" type="matrix" values="0 0 0 0 0 0 0 0 0 0 0 0 0 0 0 0 0 0 127 0" result="hardAlpha"/>
<feOffset/>
<feGaussianBlur stdDeviation="7"/>
<feComposite in2="hardAlpha" operator="arithmetic" k2="-1" k3="1"/>
<feColorMatrix type="matrix" values="0 0 0 0 0.275 0 0 0 0 0.478 0 0 0 0 1 0 0 0 1 0"/>
<feBlend mode="screen" in2="effect1_innerShadow_16_172" result="effect2_innerShadow_16_172"/>
</filter>
<filter id="filter21_ddi_16_172" x="49.5746" y="11.106" width="669.6" height="68.142" filterUnits="userSpaceOnUse" color-interpolation-filters="sRGB">
<feFlood flood-opacity="0" result="BackgroundImageFix"/>
<feColorMatrix in="SourceAlpha" type="matrix" values="0 0 0 0 0 0 0 0 0 0 0 0 0 0 0 0 0 0 127 0" result="hardAlpha"/>
<feOffset/>
<feGaussianBlur stdDeviation="9"/>
<feComposite in2="hardAlpha" operator="out"/>
<feColorMatrix type="matrix" values="0 0 0 0 0.509804 0 0 0 0 0.647059 0 0 0 0 1 0 0 0 0.54 0"/>
<feBlend mode="normal" in2="BackgroundImageFix" result="effect1_dropShadow_16_172"/>
<feColorMatrix in="SourceAlpha" type="matrix" values="0 0 0 0 0 0 0 0 0 0 0 0 0 0 0 0 0 0 127 0" result="hardAlpha"/>
<feOffset dy="4"/>
<feGaussianBlur stdDeviation="0.5"/>
<feComposite in2="hardAlpha" operator="out"/>
<feColorMatrix type="matrix" values="0 0 0 0 0.0745098 0 0 0 0 0.313726 0 0 0 0 0.560784 0 0 0 0.66 0"/>
<feBlend mode="multiply" in2="effect1_dropShadow_16_172" result="effect2_dropShadow_16_172"/>
<feBlend mode="normal" in="SourceGraphic" in2="effect2_dropShadow_16_172" result="shape"/>
<feColorMatrix in="SourceAlpha" type="matrix" values="0 0 0 0 0 0 0 0 0 0 0 0 0 0 0 0 0 0 127 0" result="hardAlpha"/>
<feOffset/>
<feGaussianBlur stdDeviation="1"/>
<feComposite in2="hardAlpha" operator="arithmetic" k2="-1" k3="1"/>
<feColorMatrix type="matrix" values="0 0 0 0 1 0 0 0 0 1 0 0 0 0 1 0 0 0 0.8 0"/>
<feBlend mode="normal" in2="shape" result="effect3_innerShadow_16_172"/>
</filter>
<linearGradient id="paint0_linear_16_172" x1="388.025" y1="104.206" x2="388.025" y2="128.303" gradientUnits="userSpaceOnUse">
<stop stop-color="#5296FC" stop-opacity="0"/>
<stop offset="1" stop-color="#5296FC" stop-opacity="0.494118"/>
</linearGradient>
<radialGradient id="paint1_radial_16_172" cx="0" cy="0" r="1" gradientUnits="userSpaceOnUse" gradientTransform="translate(392.349 128.616) rotate(-90) scale(20.8504 140.098)">
<stop stop-color="#5CE3FF"/>
<stop offset="1" stop-color="#5CE3FF" stop-opacity="0"/>
</radialGradient>
<radialGradient id="paint2_radial_16_172" cx="0" cy="0" r="1" gradientUnits="userSpaceOnUse" gradientTransform="translate(392.349 128.616) rotate(-90) scale(11.6966 78.5915)">
<stop stop-color="#5CE3FF"/>
<stop offset="1" stop-color="#5CE3FF" stop-opacity="0"/>
</radialGradient>
<linearGradient id="paint3_linear_16_172" x1="390.732" y1="10.9209" x2="390.732" y2="106.019" gradientUnits="userSpaceOnUse">
<stop offset="0.750747" stop-color="#5EAEF1" stop-opacity="0"/>
<stop offset="1" stop-color="#5EAEF1"/>
</linearGradient>
<radialGradient id="paint4_radial_16_172" cx="0" cy="0" r="1" gradientUnits="userSpaceOnUse" gradientTransform="translate(390.732 106.528) rotate(-90) scale(47.8034 384.545)">
<stop stop-color="#39C2ED"/>
<stop offset="1" stop-color="#5EAEF1" stop-opacity="0"/>
</radialGradient>
<linearGradient id="paint5_linear_16_172" x1="397.197" y1="9.90385" x2="397.197" y2="105.002" gradientUnits="userSpaceOnUse">
<stop offset="0.440219" stop-color="#3483F1" stop-opacity="0"/>
<stop offset="1" stop-color="#3483F1" stop-opacity="0.75"/>
</linearGradient>
<linearGradient id="paint6_linear_16_172" x1="387.231" y1="0.75" x2="387.231" y2="95.8483" gradientUnits="userSpaceOnUse">
<stop offset="0.354872" stop-opacity="0"/>
<stop offset="1"/>
</linearGradient>
<linearGradient id="paint7_linear_16_172" x1="14.6972" y1="86.6945" x2="760.303" y2="86.6945" gradientUnits="userSpaceOnUse">
<stop stop-color="#68E2FF" stop-opacity="0"/>
<stop offset="0.0856823" stop-color="#68E2FF" stop-opacity="0.419608"/>
<stop offset="0.264082" stop-color="#4A9DF7" stop-opacity="0.521569"/>
<stop offset="0.504022" stop-color="#8CF7FF" stop-opacity="0.682353"/>
<stop offset="0.695245" stop-color="#4A9AF6" stop-opacity="0.564706"/>
<stop offset="0.912114" stop-color="#68E2FF" stop-opacity="0.419608"/>
<stop offset="1" stop-color="#68E2FF" stop-opacity="0"/>
</linearGradient>
<linearGradient id="paint8_linear_16_172" x1="388.577" y1="9.90385" x2="388.577" y2="105.002" gradientUnits="userSpaceOnUse">
<stop offset="0.112466" stop-color="white" stop-opacity="0"/>
<stop offset="0.620298" stop-color="white"/>
</linearGradient>
<linearGradient id="paint9_linear_16_172" x1="388.577" y1="9.90385" x2="388.577" y2="105.002" gradientUnits="userSpaceOnUse">
<stop offset="0.884791" stop-color="white" stop-opacity="0"/>
<stop offset="1" stop-color="white"/>
</linearGradient>
<linearGradient id="paint10_linear_16_172" x1="384.342" y1="40.1083" x2="384.342" y2="63.5104" gradientUnits="userSpaceOnUse">
<stop stop-color="white"/>
<stop offset="1" stop-color="#77BAFF"/>
</linearGradient>
</defs>
</svg>
